M48
; DRILL file {KiCad (5.1.4)-1} date 9/15/2021 6:25:03 PM
; FORMAT={-:-/ absolute / inch / decimal}
; #@! TF.CreationDate,2021-09-15T18:25:03-07:00
; #@! TF.GenerationSoftware,Kicad,Pcbnew,(5.1.4)-1
; #@! TF.FileFunction,Plated,1,2,PTH
FMAT,2
INCH
T1C0.0118
T2C0.0157
T3C0.0236
T4C0.0866
%
G90
G05
T1
X5.724Y-4.5705
X5.7725Y-2.9605
X5.7727Y-4.5057
X5.8118Y-2.8581
X5.8199Y-4.5176
X5.8237Y-2.9487
X5.8512Y-2.9487
X5.8514Y-4.5176
X5.8906Y-2.8424
X5.8906Y-2.9998
X5.8908Y-4.4664
X5.8908Y-4.6238
X5.93Y-2.9487
X5.9302Y-4.5176
X5.9577Y-4.5176
X5.9615Y-2.9487
X5.9695Y-4.6081
X6.0087Y-2.9605
X6.0089Y-4.5057
X6.0574Y-2.8957
T2
X1.2199Y-3.0038
X1.2199Y-3.7518
X1.2632Y-4.4487
X1.4167Y-2.9054
X1.4167Y-3.0038
X1.4167Y-3.6534
X1.4167Y-3.7518
X1.4167Y-4.4014
X1.9876Y-4.5589
X2.0112Y-4.2923
X2.1647Y-2.7676
X2.1647Y-3.5156
X2.1647Y-4.2636
X2.7356Y-4.5589
X2.7592Y-4.2923
X2.9128Y-2.7676
X2.9128Y-3.5156
X2.9128Y-4.2636
X3.4836Y-4.6376
X3.5073Y-4.2923
X3.6608Y-2.7676
X3.6608Y-3.5156
X3.6608Y-4.2636
X4.0023Y-3.7577
X4.1003Y-3.4577
X4.1057Y-2.8384
X4.1057Y-3.1337
X4.1136Y-2.7479
X4.2553Y-4.2873
X4.3262Y-3.2991
X4.3262Y-3.5943
X4.3301Y-3.1554
X4.338Y-2.7006
X4.46Y-4.5825
X4.4639Y-2.8109
X4.4639Y-2.9762
X4.4954Y-2.7006
X4.4994Y-4.5628
X4.519Y-4.3455
X4.5388Y-4.5432
X4.5554Y-2.5806
X4.5781Y-4.5235
X4.6175Y-4.5038
X4.6569Y-4.4841
X4.6962Y-4.4644
X4.7356Y-4.4447
X4.7435Y-2.8896
X4.7632Y-3.6337
X4.7632Y-3.7321
X4.7947Y-4.4447
X4.8183Y-3.2006
X4.834Y-4.4447
X4.9915Y-2.6337
X6.7898Y-2.6336
X6.9473Y-4.4446
X6.9749Y-2.8344
X6.9867Y-4.4446
X7.0182Y-3.6336
X7.0182Y-3.732
X7.0379Y-2.9564
X7.0379Y-3.1139
X7.0457Y-4.4446
X7.0851Y-4.4642
X7.1245Y-4.4839
X7.1442Y-2.9879
X7.1638Y-4.5036
X7.2032Y-4.5233
X7.2229Y-2.7123
X7.2426Y-4.543
X7.282Y-4.5627
X7.3175Y-2.9881
X7.3213Y-4.3461
X7.3213Y-4.5823
X7.4047Y-2.7105
X7.4591Y-2.5785
X7.4788Y-4.3461
X7.4888Y-3.106
X7.5093Y-2.7317
X7.5182Y-3.48
X7.5573Y-3.3459
X7.7111Y-2.862
X7.7111Y-3.1179
X7.778Y-3.7557
X8.1205Y-2.7871
X8.1205Y-3.5549
X8.1205Y-4.3029
X8.2268Y-4.3461
X8.2977Y-4.6375
X8.8686Y-2.7871
X8.8686Y-3.5549
X8.8686Y-4.3029
X8.9749Y-4.3461
X9.0457Y-4.5588
X9.6166Y-2.7871
X9.6166Y-3.5549
X9.6166Y-4.3029
X9.7229Y-4.3461
X9.7938Y-4.5588
X10.3646Y-2.9053
X10.3646Y-3.0037
X10.3646Y-3.6533
X10.3646Y-3.7517
X10.3646Y-4.4013
X10.4709Y-4.4446
X10.5024Y-3.0037
X10.5024Y-3.7517
T4
X6.1268Y-3.0805
X5.6546Y-4.3857
X5.6544Y-3.0811
X6.127Y-4.3851
T3
G00X5.7207Y-4.0431
M15
G01X5.7207Y-4.1022
M16
G05
G00X5.7207Y-4.264
M15
G01X5.7207Y-4.3034
M16
G05
G00X6.0609Y-4.0431
M15
G01X6.0609Y-4.1022
M16
G05
G00X6.0609Y-4.264
M15
G01X6.0609Y-4.3034
M16
G05
G00X5.7205Y-3.2022
M15
G01X5.7205Y-3.1628
M16
G05
G00X5.7205Y-3.4231
M15
G01X5.7205Y-3.364
M16
G05
G00X6.0607Y-3.2022
M15
G01X6.0607Y-3.1628
M16
G05
G00X6.0607Y-3.4231
M15
G01X6.0607Y-3.364
M16
G05
T0
M30
