G04 #@! TF.GenerationSoftware,KiCad,Pcbnew,(5.1.4)-1*
G04 #@! TF.CreationDate,2021-09-15T18:24:51-07:00*
G04 #@! TF.ProjectId,Panel,50616e65-6c2e-46b6-9963-61645f706362,rev?*
G04 #@! TF.SameCoordinates,Original*
G04 #@! TF.FileFunction,Profile,NP*
%FSLAX46Y46*%
G04 Gerber Fmt 4.6, Leading zero omitted, Abs format (unit mm)*
G04 Created by KiCad (PCBNEW (5.1.4)-1) date 2021-09-15 18:24:51*
%MOMM*%
%LPD*%
G04 APERTURE LIST*
%ADD10C,0.100000*%
G04 APERTURE END LIST*
D10*
X9624265Y-94412229D02*
X9621772Y-151195578D01*
X9621772Y-51195578D02*
X9624265Y-88184229D01*
X289621773Y-94409577D02*
X289621772Y-151195578D01*
X289621772Y-51195578D02*
X289621773Y-88181577D01*
X289621772Y-161205578D02*
X299621772Y-161195578D01*
X9621772Y-161205578D02*
X-378228Y-161195578D01*
X165804265Y-147818229D02*
X166414265Y-147818229D01*
X165790886Y-147580789D02*
X165804265Y-147818229D01*
X166414265Y-150198229D02*
X166414265Y-147818229D01*
X160790886Y-147580789D02*
X160796265Y-147818229D01*
X160186265Y-147818229D02*
X160796265Y-147818229D01*
X160186265Y-150198229D02*
X160186265Y-147818229D01*
X138450886Y-147580789D02*
X138454265Y-147818229D01*
X139064265Y-147818229D02*
X138454265Y-147818229D01*
X139064265Y-150198229D02*
X139064265Y-147818229D01*
X133446265Y-147818229D02*
X133450886Y-147580789D01*
X133446265Y-147818229D02*
X132836265Y-147818229D01*
X132836265Y-150198229D02*
X132836265Y-147818229D01*
X139064886Y-54580789D02*
X138454886Y-54580789D01*
X139064886Y-52200789D02*
X139064886Y-54580789D01*
X132836886Y-54580789D02*
X133450886Y-54580789D01*
X132836886Y-52200789D02*
X132836886Y-54580789D01*
X166412265Y-54578229D02*
X165790886Y-54580789D01*
X166412265Y-52198229D02*
X166412265Y-54578229D01*
X160790886Y-54580789D02*
X160184265Y-54578229D01*
X160184265Y-52198229D02*
X160184265Y-54578229D01*
X165791772Y-96503578D02*
X165790886Y-147580789D01*
X165790886Y-54580789D02*
X165791772Y-90275578D01*
X160795886Y-110694789D02*
X160790886Y-147580789D01*
X160790886Y-85174789D02*
X160795886Y-104466789D01*
X160790886Y-54580789D02*
X160790886Y-78946789D01*
X133454265Y-96506229D02*
X133450886Y-147580789D01*
X133450886Y-54580789D02*
X133454265Y-90278229D01*
X138455886Y-110694789D02*
X138450886Y-147580789D01*
X138450886Y-85174789D02*
X138455886Y-104466789D01*
X138450886Y-54580789D02*
X138450886Y-78946789D01*
X167961772Y-96503578D02*
X165791772Y-96503578D01*
X167961772Y-90275578D02*
X165791772Y-90275578D01*
X158625886Y-110694789D02*
X160795886Y-110694789D01*
X158625886Y-104466789D02*
X160795886Y-104466789D01*
X140625886Y-110694789D02*
X138455886Y-110694789D01*
X140625886Y-104466789D02*
X138455886Y-104466789D01*
X158620886Y-85174789D02*
X160790886Y-85174789D01*
X158620886Y-78946789D02*
X160790886Y-78946789D01*
X140620886Y-85174789D02*
X138450886Y-85174789D01*
X140620886Y-78946789D02*
X138450886Y-78946789D01*
X131284265Y-96506229D02*
X133454265Y-96506229D01*
X131284265Y-90278229D02*
X133454265Y-90278229D01*
X283961773Y-94409577D02*
X289621773Y-94409577D01*
X283961773Y-88181577D02*
X289621773Y-88181577D01*
X15284265Y-94412229D02*
X9624265Y-94412229D01*
X15284265Y-88184229D02*
X9624265Y-88184229D01*
X282961773Y-95409577D02*
X282961773Y-118795577D01*
X282961772Y-63795578D02*
X282961773Y-87181577D01*
X167412265Y-51198229D02*
X193548265Y-51198229D01*
X140064886Y-51200789D02*
X159184265Y-51198229D01*
X105698265Y-51198229D02*
X131836886Y-51200789D01*
X16284265Y-95412229D02*
X16284265Y-118798229D01*
X16284265Y-63798229D02*
X16284265Y-87184229D01*
X157620886Y-77946789D02*
X157620886Y-77260789D01*
X157620886Y-86845789D02*
X157620886Y-86174789D01*
X141620886Y-77946789D02*
X141620886Y-77260789D01*
X141620886Y-86174789D02*
X141620886Y-86845789D01*
X157625886Y-103466789D02*
X157625886Y-102795789D01*
X157625886Y-111694789D02*
X157625886Y-112380789D01*
X141625886Y-111694789D02*
X141625886Y-112380789D01*
X141625886Y-102795789D02*
X141625886Y-103466789D01*
X130284265Y-97506229D02*
X130284265Y-119462229D01*
X130284265Y-63396229D02*
X130284265Y-89278229D01*
X168961772Y-97503578D02*
X168961772Y-119459578D01*
X168961773Y-63393576D02*
X168961772Y-89275578D01*
X167414265Y-151198229D02*
X202250265Y-151198229D01*
X140064265Y-151198229D02*
X159186265Y-151198229D01*
X97000265Y-151198229D02*
X131836265Y-151198229D01*
X167414265Y-151198229D02*
G75*
G02X166414265Y-150198229I0J1000000D01*
G01*
X160186265Y-150198229D02*
G75*
G02X159186265Y-151198229I-1000000J0D01*
G01*
X140064265Y-151198229D02*
G75*
G02X139064265Y-150198229I0J1000000D01*
G01*
X132836265Y-150198229D02*
G75*
G02X131836265Y-151198229I-1000000J0D01*
G01*
X131836886Y-51200789D02*
G75*
G02X132836886Y-52200789I0J-1000000D01*
G01*
X139064886Y-52200789D02*
G75*
G02X140064886Y-51200789I1000000J0D01*
G01*
X166412265Y-52198229D02*
G75*
G02X167412265Y-51198229I1000000J0D01*
G01*
X159184265Y-51198229D02*
G75*
G02X160184265Y-52198229I0J-1000000D01*
G01*
X158620886Y-78946789D02*
G75*
G02X157620886Y-77946789I0J1000000D01*
G01*
X157620886Y-86174789D02*
G75*
G02X158620886Y-85174789I1000000J0D01*
G01*
X140620886Y-85174789D02*
G75*
G02X141620886Y-86174789I0J-1000000D01*
G01*
X141620886Y-77946789D02*
G75*
G02X140620886Y-78946789I-1000000J0D01*
G01*
X130284265Y-97506229D02*
G75*
G02X131284265Y-96506229I1000000J0D01*
G01*
X131284265Y-90278229D02*
G75*
G02X130284265Y-89278229I0J1000000D01*
G01*
X140625886Y-110694789D02*
G75*
G02X141625886Y-111694789I0J-1000000D01*
G01*
X141625886Y-103466789D02*
G75*
G02X140625886Y-104466789I-1000000J0D01*
G01*
X157625886Y-111694789D02*
G75*
G02X158625886Y-110694789I1000000J0D01*
G01*
X158625886Y-104466789D02*
G75*
G02X157625886Y-103466789I0J1000000D01*
G01*
X167961772Y-96503578D02*
G75*
G02X168961772Y-97503578I0J-1000000D01*
G01*
X168961772Y-89275578D02*
G75*
G02X167961772Y-90275578I-1000000J0D01*
G01*
X282961773Y-95409577D02*
G75*
G02X283961773Y-94409577I1000000J0D01*
G01*
X283961773Y-88181577D02*
G75*
G02X282961773Y-87181577I0J1000000D01*
G01*
X15284265Y-94412229D02*
G75*
G02X16284265Y-95412229I0J-1000000D01*
G01*
X16284265Y-87184229D02*
G75*
G02X15284265Y-88184229I-1000000J0D01*
G01*
X14621772Y-161205578D02*
X284621772Y-161205578D01*
X14621772Y-41185578D02*
X284621772Y-41195578D01*
X277380265Y-151198229D02*
X284621772Y-151195578D01*
X289621772Y-153085578D02*
X289621772Y-151195578D01*
X284621772Y-153085578D02*
X289621772Y-153085578D01*
X284621772Y-151195578D02*
X284621772Y-153085578D01*
X284621772Y-51195578D02*
X277378265Y-51198229D01*
X284621772Y-49305578D02*
X284621772Y-51195578D01*
X289621772Y-49305578D02*
X284621772Y-49305578D01*
X289621772Y-51195578D02*
X289621772Y-49305578D01*
X284621772Y-43085578D02*
X284621772Y-41195578D01*
X289621772Y-43085578D02*
X284621772Y-43085578D01*
X289621772Y-41195578D02*
X289621772Y-43085578D01*
X299621772Y-41195578D02*
X289621772Y-41195578D01*
X284621772Y-159315578D02*
X284621772Y-161205578D01*
X289621772Y-159315578D02*
X284621772Y-159315578D01*
X289621772Y-161205578D02*
X289621772Y-159315578D01*
X14621772Y-159315578D02*
X14621772Y-161205578D01*
X9621772Y-159315578D02*
X9621772Y-161205578D01*
X9621772Y-159315578D02*
X14621772Y-159315578D01*
X14621772Y-151195578D02*
X21870265Y-151198229D01*
X9621772Y-153085578D02*
X9621772Y-151195578D01*
X14621772Y-153085578D02*
X14621772Y-151195578D01*
X9621772Y-153085578D02*
X14621772Y-153085578D01*
X14621772Y-43075578D02*
X14621772Y-41185578D01*
X9621772Y-41185578D02*
X9621772Y-43075578D01*
X-378228Y-41195578D02*
X9621772Y-41185578D01*
X9621772Y-43075578D02*
X14621772Y-43075578D01*
X14621772Y-51195578D02*
X21870265Y-51198229D01*
X14621772Y-49305578D02*
X14621772Y-51195578D01*
X9621772Y-51195578D02*
X9621772Y-49305578D01*
X9621772Y-49305578D02*
X14621772Y-49305578D01*
X59670265Y-56695230D02*
X55184265Y-56695229D01*
X67898265Y-56695230D02*
X72384265Y-56695230D01*
X97470265Y-60396229D02*
X92884264Y-60396228D01*
X110284264Y-60396228D02*
X105698265Y-60396229D01*
X193547772Y-60393578D02*
X188961772Y-60393578D01*
X201775772Y-60393578D02*
X206361772Y-60393578D01*
X226861772Y-56692578D02*
X231347772Y-56692577D01*
X239575772Y-56692577D02*
X244061772Y-56692577D01*
X269147773Y-62795577D02*
X264561773Y-62795577D01*
X281961773Y-62795577D02*
X277375773Y-62795577D01*
X277375772Y-119795578D02*
X281961772Y-119795578D01*
X255461773Y-119795578D02*
X269147772Y-119795578D01*
X248875772Y-134143577D02*
X253461772Y-134143577D01*
X217061772Y-134143577D02*
X240650265Y-134148229D01*
X210475772Y-136393577D02*
X215061772Y-136393577D01*
X194779772Y-136393577D02*
X202247772Y-136393577D01*
X96998266Y-136396228D02*
X104466265Y-136396229D01*
X84184266Y-136396228D02*
X88770266Y-136396228D01*
X58598265Y-134146229D02*
X82184265Y-134146229D01*
X45784265Y-134146229D02*
X50370265Y-134148229D01*
X30098265Y-119798229D02*
X43784266Y-119798229D01*
X17284265Y-119798229D02*
X21870265Y-119798229D01*
X277375773Y-62795577D02*
G75*
G02X276375773Y-61795577I0J1000000D01*
G01*
X270147773Y-61795577D02*
G75*
G02X269147773Y-62795577I-1000000J0D01*
G01*
X239575772Y-56692577D02*
G75*
G02X238575772Y-55692577I0J1000000D01*
G01*
X232347772Y-55692577D02*
G75*
G02X231347772Y-56692577I-1000000J0D01*
G01*
X201775772Y-60393578D02*
G75*
G02X200775772Y-59393578I0J1000000D01*
G01*
X194547772Y-59393578D02*
G75*
G02X193547772Y-60393578I-1000000J0D01*
G01*
X105698265Y-60396229D02*
G75*
G02X104698265Y-59396229I0J1000000D01*
G01*
X98470265Y-59396229D02*
G75*
G02X97470265Y-60396229I-1000000J0D01*
G01*
X67898265Y-56695230D02*
G75*
G02X66898265Y-55695230I0J1000000D01*
G01*
X60670265Y-55695230D02*
G75*
G02X59670265Y-56695230I-1000000J0D01*
G01*
X21870265Y-119798229D02*
G75*
G02X22870265Y-120798229I0J-1000000D01*
G01*
X29098265Y-120798229D02*
G75*
G02X30098265Y-119798229I1000000J0D01*
G01*
X50370265Y-134148229D02*
G75*
G02X51370265Y-135148229I0J-1000000D01*
G01*
X57598265Y-135146229D02*
G75*
G02X58598265Y-134146229I1000000J0D01*
G01*
X88770266Y-136396228D02*
G75*
G02X89770266Y-137396228I0J-1000000D01*
G01*
X95998266Y-137396228D02*
G75*
G02X96998266Y-136396228I1000000J0D01*
G01*
X202247772Y-136393577D02*
G75*
G02X203247772Y-137393577I0J-1000000D01*
G01*
X209475772Y-137393577D02*
G75*
G02X210475772Y-136393577I1000000J0D01*
G01*
X240650265Y-134148229D02*
G75*
G02X241650265Y-135148229I0J-1000000D01*
G01*
X247875772Y-135143577D02*
G75*
G02X248875772Y-134143577I1000000J0D01*
G01*
X269147772Y-119795578D02*
G75*
G02X270147772Y-120795578I0J-1000000D01*
G01*
X276375772Y-120795578D02*
G75*
G02X277375772Y-119795578I1000000J0D01*
G01*
X277380265Y-151198229D02*
G75*
G02X276380265Y-150198229I0J1000000D01*
G01*
X276375772Y-120795578D02*
X276380265Y-150198229D01*
X270147772Y-120795578D02*
X270150265Y-150198229D01*
X270150265Y-150198229D02*
G75*
G02X269150265Y-151198229I-1000000J0D01*
G01*
X248880265Y-151198229D02*
X269150265Y-151198229D01*
X248880265Y-151198229D02*
G75*
G02X247880265Y-150198229I0J1000000D01*
G01*
X247880265Y-150198229D02*
X247875772Y-135143577D01*
X241650265Y-135148229D02*
X241650265Y-150198229D01*
X241650265Y-150198229D02*
G75*
G02X240650265Y-151198229I-1000000J0D01*
G01*
X210480265Y-151198229D02*
X240650265Y-151198229D01*
X210480265Y-151198229D02*
G75*
G02X209480265Y-150198229I0J1000000D01*
G01*
X209475772Y-137393577D02*
X209480265Y-150198229D01*
X203247772Y-137393577D02*
X203250265Y-150198229D01*
X203250265Y-150198229D02*
G75*
G02X202250265Y-151198229I-1000000J0D01*
G01*
X97000265Y-151198229D02*
G75*
G02X96000265Y-150198229I0J1000000D01*
G01*
X95998266Y-137396228D02*
X96000265Y-150198229D01*
X89770266Y-137396228D02*
X89770265Y-150198229D01*
X89770265Y-150198229D02*
G75*
G02X88770265Y-151198229I-1000000J0D01*
G01*
X58600265Y-151198229D02*
X88770265Y-151198229D01*
X58600265Y-151198229D02*
G75*
G02X57600265Y-150198229I0J1000000D01*
G01*
X57598265Y-135146229D02*
X57600265Y-150198229D01*
X51370265Y-135148229D02*
X51370265Y-150198229D01*
X51370265Y-150198229D02*
G75*
G02X50370265Y-151198229I-1000000J0D01*
G01*
X30100265Y-151198229D02*
X50370265Y-151198229D01*
X29098265Y-120798229D02*
X29100265Y-150198229D01*
X30100265Y-151198229D02*
G75*
G02X29100265Y-150198229I0J1000000D01*
G01*
X22870265Y-150198229D02*
G75*
G02X21870265Y-151198229I-1000000J0D01*
G01*
X276378265Y-52198229D02*
G75*
G02X277378265Y-51198229I1000000J0D01*
G01*
X276378265Y-52198229D02*
X276375773Y-61795577D01*
X270148265Y-52198229D02*
X270147773Y-61795577D01*
X269148265Y-51198229D02*
G75*
G02X270148265Y-52198229I0J-1000000D01*
G01*
X239578265Y-51198229D02*
X269148265Y-51198229D01*
X238578265Y-52198229D02*
G75*
G02X239578265Y-51198229I1000000J0D01*
G01*
X238575772Y-55692577D02*
X238578265Y-52198229D01*
X232348265Y-52198229D02*
X232347772Y-55692577D01*
X231348265Y-51198229D02*
G75*
G02X232348265Y-52198229I0J-1000000D01*
G01*
X201778265Y-51198229D02*
X231348265Y-51198229D01*
X200778265Y-52198229D02*
G75*
G02X201778265Y-51198229I1000000J0D01*
G01*
X200778265Y-52198229D02*
X200775772Y-59393578D01*
X194548265Y-52198229D02*
X194547772Y-59393578D01*
X193548265Y-51198229D02*
G75*
G02X194548265Y-52198229I0J-1000000D01*
G01*
X104698265Y-52198229D02*
G75*
G02X105698265Y-51198229I1000000J0D01*
G01*
X104698265Y-59396229D02*
X104698265Y-52198229D01*
X98468265Y-52198229D02*
X98470265Y-59396229D01*
X97468265Y-51198229D02*
G75*
G02X98468265Y-52198229I0J-1000000D01*
G01*
X67898265Y-51198229D02*
X97468265Y-51198229D01*
X66898265Y-52198229D02*
G75*
G02X67898265Y-51198229I1000000J0D01*
G01*
X66898265Y-52198229D02*
X66898265Y-55695230D01*
X60670265Y-55695230D02*
X60668265Y-52198229D01*
X59668265Y-51198229D02*
G75*
G02X60668265Y-52198229I0J-1000000D01*
G01*
X30098265Y-51198229D02*
X59668265Y-51198229D01*
X29098265Y-52198229D02*
G75*
G02X30098265Y-51198229I1000000J0D01*
G01*
X21870265Y-51198229D02*
G75*
G02X22870265Y-52198229I0J-1000000D01*
G01*
X22870265Y-120798229D02*
X22870265Y-150198229D01*
X30098265Y-62798229D02*
X34684265Y-62798229D01*
X17284265Y-62798229D02*
X21870265Y-62798229D01*
X30098265Y-62798229D02*
G75*
G02X29098265Y-61798229I0J1000000D01*
G01*
X29098265Y-61798229D02*
X29098265Y-52198229D01*
X22870265Y-61798229D02*
G75*
G02X21870265Y-62798229I-1000000J0D01*
G01*
X22870265Y-61798229D02*
X22870265Y-52198229D01*
X299621772Y-161195578D02*
X299621772Y-41195578D01*
X-378228Y-41195578D02*
X-378228Y-161195578D01*
X155925886Y-101795789D02*
X143325886Y-101795789D01*
X144125886Y-120380789D02*
X144125886Y-114380789D01*
X154125886Y-121380789D02*
X145125886Y-121380789D01*
X155125886Y-114380789D02*
X155125886Y-120380789D01*
X154125886Y-121380789D02*
G75*
G03X155125886Y-120380789I0J1000000D01*
G01*
X144125886Y-120380789D02*
G75*
G03X145125886Y-121380789I1000000J0D01*
G01*
X143125886Y-113380789D02*
X142625886Y-113380789D01*
X142625886Y-101795789D02*
G75*
G03X141625886Y-102795789I0J-1000000D01*
G01*
X144125886Y-114380789D02*
G75*
G03X143125886Y-113380789I-1000000J0D01*
G01*
X141625886Y-112380789D02*
G75*
G03X142625886Y-113380789I1000000J0D01*
G01*
X156125886Y-113380789D02*
X156625886Y-113380789D01*
X156125886Y-113380789D02*
G75*
G03X155125886Y-114380789I0J-1000000D01*
G01*
X156625886Y-113380789D02*
G75*
G03X157625886Y-112380789I0J1000000D01*
G01*
X157625886Y-102795789D02*
G75*
G03X156625886Y-101795789I-1000000J0D01*
G01*
X155925886Y-101795789D02*
X156625886Y-101795789D01*
X142625886Y-101795789D02*
X143325886Y-101795789D01*
X156620886Y-87845789D02*
G75*
G03X157620886Y-86845789I0J1000000D01*
G01*
X143120886Y-76260789D02*
G75*
G03X144120886Y-75260789I0J1000000D01*
G01*
X145120886Y-68260789D02*
X154120886Y-68260789D01*
X144120886Y-75260789D02*
X144120886Y-69260789D01*
X143120886Y-76260789D02*
X142620886Y-76260789D01*
X141620886Y-86845789D02*
G75*
G03X142620886Y-87845789I1000000J0D01*
G01*
X145120886Y-68260789D02*
G75*
G03X144120886Y-69260789I0J-1000000D01*
G01*
X143320886Y-87845789D02*
X155920886Y-87845789D01*
X155120886Y-69260789D02*
G75*
G03X154120886Y-68260789I-1000000J0D01*
G01*
X155120886Y-69260789D02*
X155120886Y-75260789D01*
X143320886Y-87845789D02*
X142620886Y-87845789D01*
X156620886Y-87845789D02*
X155920886Y-87845789D01*
X157620886Y-77260789D02*
G75*
G03X156620886Y-76260789I-1000000J0D01*
G01*
X155120886Y-75260789D02*
G75*
G03X156120886Y-76260789I1000000J0D01*
G01*
X142620886Y-76260789D02*
G75*
G03X141620886Y-77260789I0J-1000000D01*
G01*
X156120886Y-76260789D02*
X156620886Y-76260789D01*
X117751239Y-144066229D02*
X104466265Y-136396229D01*
X131904264Y-121552254D02*
X119117265Y-143700203D01*
X130284265Y-119462229D02*
X131538239Y-120186229D01*
X119117265Y-143700203D02*
G75*
G02X117751239Y-144066229I-866026J500000D01*
G01*
X131538239Y-120186229D02*
G75*
G02X131904264Y-121552254I-500000J-866025D01*
G01*
X44784265Y-133146229D02*
X44784265Y-120798230D01*
X83184265Y-135396229D02*
X83184265Y-135146229D01*
X112284265Y-62396229D02*
X129284265Y-62396229D01*
X91884265Y-58999229D02*
X91884265Y-59396229D01*
X73384265Y-57999229D02*
X90884265Y-57999229D01*
X72884264Y-57195229D02*
X72884264Y-57499229D01*
X54684265Y-57498229D02*
X54684265Y-57195229D01*
X36684265Y-57998229D02*
X54184265Y-57998229D01*
X35684264Y-61798229D02*
X35684264Y-58998229D01*
X17284265Y-119798229D02*
G75*
G02X16284265Y-118798229I0J1000000D01*
G01*
X43784266Y-119798229D02*
G75*
G02X44784265Y-120798230I-1J-1000000D01*
G01*
X45784265Y-134146229D02*
G75*
G02X44784265Y-133146229I0J1000000D01*
G01*
X82184265Y-134146229D02*
G75*
G02X83184265Y-135146229I0J-1000000D01*
G01*
X84184266Y-136396228D02*
G75*
G02X83184265Y-135396229I-1J1000000D01*
G01*
X129284265Y-62396229D02*
G75*
G02X130284265Y-63396229I0J-1000000D01*
G01*
X112284264Y-62396228D02*
G75*
G02X111284265Y-61396229I0J999999D01*
G01*
X110284264Y-60396228D02*
G75*
G02X111284265Y-61396229I0J-1000001D01*
G01*
X92884264Y-60396228D02*
G75*
G02X91884265Y-59396229I0J999999D01*
G01*
X90884265Y-57999229D02*
G75*
G02X91884265Y-58999229I0J-1000000D01*
G01*
X73384265Y-57999230D02*
G75*
G02X72884264Y-57499229I0J500001D01*
G01*
X72384265Y-56695230D02*
G75*
G02X72884264Y-57195229I0J-499999D01*
G01*
X54684265Y-57195229D02*
G75*
G02X55184265Y-56695229I500000J0D01*
G01*
X54684264Y-57498228D02*
G75*
G02X54184265Y-57998229I-500000J-1D01*
G01*
X35684265Y-58998229D02*
G75*
G02X36684265Y-57998229I1000000J0D01*
G01*
X35684265Y-61798229D02*
G75*
G02X34684265Y-62798229I-1000000J0D01*
G01*
X16284265Y-63798229D02*
G75*
G02X17284265Y-62798229I1000000J0D01*
G01*
X168961773Y-63393576D02*
G75*
G02X169961773Y-62393578I1000000J-2D01*
G01*
X263561772Y-58995578D02*
X263561772Y-61795578D01*
X245061771Y-57995578D02*
X262561773Y-57995577D01*
X244561772Y-57192577D02*
X244561772Y-57495577D01*
X226361773Y-57496577D02*
X226361773Y-57192577D01*
X208361772Y-57996578D02*
X225861772Y-57996578D01*
X207361772Y-59393578D02*
X207361773Y-58996577D01*
X169961773Y-62393578D02*
X186961772Y-62393578D01*
X254461771Y-133143578D02*
X254461773Y-120795576D01*
X216061771Y-135393578D02*
X216061771Y-135143578D01*
X181494798Y-144063578D02*
X194779772Y-136393577D01*
X167341772Y-121549603D02*
X180128772Y-143697552D01*
X168961772Y-119459578D02*
X167707797Y-120183578D01*
X167341772Y-121549603D02*
G75*
G02X167707797Y-120183578I866025J500000D01*
G01*
X181494798Y-144063578D02*
G75*
G02X180128772Y-143697552I-500000J866026D01*
G01*
X216061771Y-135393578D02*
G75*
G02X215061772Y-136393577I-999999J0D01*
G01*
X216061771Y-135143578D02*
G75*
G02X217061772Y-134143577I1000001J0D01*
G01*
X254461771Y-133143578D02*
G75*
G02X253461772Y-134143577I-999999J0D01*
G01*
X254461773Y-120795576D02*
G75*
G02X255461773Y-119795578I999999J-1D01*
G01*
X282961773Y-118795577D02*
G75*
G02X281961772Y-119795578I-1000001J0D01*
G01*
X281961773Y-62795577D02*
G75*
G02X282961772Y-63795578I-1J-1000000D01*
G01*
X264561773Y-62795577D02*
G75*
G02X263561772Y-61795578I-1J1000000D01*
G01*
X262561773Y-57995577D02*
G75*
G02X263561772Y-58995578I-1J-1000000D01*
G01*
X245061771Y-57995578D02*
G75*
G02X244561772Y-57495577I1J500000D01*
G01*
X244061772Y-56692577D02*
G75*
G02X244561772Y-57192577I0J-500000D01*
G01*
X226361773Y-57192577D02*
G75*
G02X226861772Y-56692578I499999J0D01*
G01*
X226361773Y-57496577D02*
G75*
G02X225861772Y-57996578I-500001J0D01*
G01*
X207361773Y-58996577D02*
G75*
G02X208361772Y-57996578I999999J0D01*
G01*
X207361772Y-59393578D02*
G75*
G02X206361772Y-60393578I-1000000J0D01*
G01*
X187961772Y-61393578D02*
G75*
G02X188961772Y-60393578I1000000J0D01*
G01*
X187961772Y-61393578D02*
G75*
G02X186961772Y-62393578I-1000000J0D01*
G01*
M02*
