M48
; DRILL file {KiCad (5.1.4)-1} date 9/15/2021 6:25:03 PM
; FORMAT={-:-/ absolute / inch / decimal}
; #@! TF.CreationDate,2021-09-15T18:25:03-07:00
; #@! TF.GenerationSoftware,Kicad,Pcbnew,(5.1.4)-1
; #@! TF.FileFunction,NonPlated,1,2,NPTH
FMAT,2
INCH
T1C0.0310
T2C0.0670
T3C0.1181
T4C0.1570
%
G90
G05
T1
X6.3291Y-2.0344
X6.3791Y-2.0344
X6.4291Y-2.0344
X6.4791Y-2.0344
X6.5291Y-2.0344
X9.5363Y-5.3
X9.5863Y-5.3
X9.6363Y-5.3
X9.6863Y-5.3
X9.7363Y-5.3
X0.923Y-4.7352
X0.973Y-4.7352
X1.023Y-4.7352
X1.073Y-4.7352
X1.123Y-4.7352
X6.3291Y-5.9339
X6.3791Y-5.9339
X6.4291Y-5.9339
X6.4791Y-5.9339
X6.5291Y-5.9339
X6.6333Y-3.5768
X6.6333Y-3.6268
X6.6333Y-3.6768
X6.6333Y-3.7268
X6.6333Y-3.7768
X6.2245Y-4.1355
X6.2245Y-4.1855
X6.2245Y-4.2355
X6.2245Y-4.2855
X6.2245Y-4.3355
X0.4576Y-6.0494
X0.4576Y-6.0994
X0.4576Y-6.1494
X0.4576Y-6.1994
X0.4576Y-6.2494
X5.148Y-3.5769
X5.148Y-3.6269
X5.148Y-3.6769
X5.148Y-3.7269
X5.148Y-3.7769
X8.0245Y-5.3886
X8.0745Y-5.3886
X8.1245Y-5.3886
X8.1745Y-5.3886
X8.2245Y-5.3886
X6.2243Y-3.1307
X6.2243Y-3.1807
X6.2243Y-3.2307
X6.2243Y-3.2807
X6.2243Y-3.3307
X10.6583Y-4.7351
X10.7083Y-4.7351
X10.7583Y-4.7351
X10.8083Y-4.7351
X10.8583Y-4.7351
X5.2524Y-2.0345
X5.3024Y-2.0345
X5.3524Y-2.0345
X5.4024Y-2.0345
X5.4524Y-2.0345
X3.8994Y-2.3591
X3.9494Y-2.3591
X3.9994Y-2.3591
X4.0494Y-2.3591
X4.0994Y-2.3591
X11.3237Y-1.7187
X11.3237Y-1.7687
X11.3237Y-1.8187
X11.3237Y-1.8687
X11.3237Y-1.9187
X0.923Y-2.4536
X0.973Y-2.4536
X1.023Y-2.4536
X1.073Y-2.4536
X1.123Y-2.4536
X10.6583Y-2.4535
X10.7083Y-2.4535
X10.7583Y-2.4535
X10.8083Y-2.4535
X10.8583Y-2.4535
X5.5571Y-4.1355
X5.5571Y-4.1855
X5.5571Y-4.2355
X5.5571Y-4.2855
X5.5571Y-4.3355
X0.6224Y-3.4944
X0.6224Y-3.5444
X0.6224Y-3.5944
X0.6224Y-3.6444
X0.6224Y-3.6944
X9.1701Y-2.2133
X9.2201Y-2.2133
X9.2701Y-2.2133
X9.3201Y-2.2133
X9.3701Y-2.2133
X5.5569Y-3.1307
X5.5569Y-3.1807
X5.5569Y-3.2307
X5.5569Y-3.2807
X5.5569Y-3.3307
X7.682Y-2.359
X7.732Y-2.359
X7.782Y-2.359
X7.832Y-2.359
X7.882Y-2.359
X3.5569Y-5.3887
X3.6069Y-5.3887
X3.6569Y-5.3887
X3.7069Y-5.3887
X3.7569Y-5.3887
X5.2524Y-5.9339
X5.3024Y-5.9339
X5.3524Y-5.9339
X5.4024Y-5.9339
X5.4524Y-5.9339
X2.4112Y-2.2134
X2.4612Y-2.2134
X2.5112Y-2.2134
X2.5612Y-2.2134
X2.6112Y-2.2134
X11.3237Y-6.0494
X11.3237Y-6.0994
X11.3237Y-6.1494
X11.3237Y-6.1994
X11.3237Y-6.2494
X2.045Y-5.3001
X2.095Y-5.3001
X2.145Y-5.3001
X2.195Y-5.3001
X2.245Y-5.3001
X0.4576Y-1.7187
X0.4576Y-1.7687
X0.4576Y-1.8187
X0.4576Y-1.8687
X0.4576Y-1.9187
X11.159Y-3.4943
X11.159Y-3.5443
X11.159Y-3.5943
X11.159Y-3.6443
X11.159Y-3.6943
T2
X8.6961Y-4.9072
X9.0961Y-4.9072
X7.5741Y-3.4997
X7.9741Y-3.4997
X9.0701Y-4.1021
X9.4701Y-4.1021
X6.9907Y-5.1344
X7.3371Y-4.9344
X3.0592Y-3.4055
X3.4592Y-3.4055
X4.5553Y-3.303
X4.9553Y-3.303
X3.4332Y-4.9959
X3.8332Y-4.9959
X2.3112Y-2.6061
X2.7112Y-2.6061
X4.4442Y-4.9345
X4.7907Y-5.1345
X6.8261Y-3.3029
X7.2261Y-3.3029
X9.8182Y-3.4053
X10.2182Y-3.4053
X1.9372Y-4.9073
X2.3372Y-4.9073
X9.4442Y-4.9072
X9.8442Y-4.9072
X8.3221Y-4.1534
X8.7221Y-4.1534
X6.8261Y-4.0509
X7.2261Y-4.0509
X9.0701Y-3.354
X9.4701Y-3.354
X4.5553Y-4.051
X4.9553Y-4.051
X2.3112Y-4.1022
X2.7112Y-4.1022
X3.0592Y-4.1535
X3.4592Y-4.1535
X10.5662Y-2.8463
X10.9662Y-2.8463
X1.5632Y-2.6574
X1.9632Y-2.6574
X10.5662Y-4.3423
X10.9662Y-4.3423
X0.8151Y-4.3424
X1.2151Y-4.3424
X3.0592Y-2.6574
X3.4592Y-2.6574
X3.8073Y-2.7518
X4.2073Y-2.7518
X0.8151Y-3.5944
X1.2151Y-3.5944
X7.5741Y-2.7517
X7.9741Y-2.7517
X7.9481Y-4.9958
X8.3481Y-4.9958
X9.0701Y-2.606
X9.4701Y-2.606
X2.6852Y-4.9073
X3.0852Y-4.9073
X9.8182Y-4.1534
X10.2182Y-4.1534
X8.3221Y-2.6573
X8.7221Y-2.6573
X3.8073Y-3.4999
X4.2073Y-3.4999
X10.5662Y-3.5943
X10.9662Y-3.5943
X7.5741Y-4.2478
X7.9741Y-4.2478
X0.8151Y-2.8464
X1.2151Y-2.8464
X2.3112Y-3.3541
X2.7112Y-3.3541
X1.5632Y-4.1535
X1.9632Y-4.1535
X1.5632Y-3.4054
X1.9632Y-3.4054
X8.3221Y-3.4054
X8.7221Y-3.4054
X3.8073Y-4.2479
X4.2073Y-4.2479
X9.8182Y-2.6573
X10.2182Y-2.6573
T3
X1.6132Y-3.3054
X1.8632Y-3.2054
X8.3721Y-3.3054
X8.6221Y-3.2054
X3.8573Y-4.1479
X4.1073Y-4.0479
X9.8682Y-2.5573
X10.1182Y-2.4573
X8.7461Y-4.8072
X8.9961Y-4.7072
X7.6241Y-3.3997
X7.8741Y-3.2997
X9.1201Y-4.0021
X9.3701Y-3.9021
X7.1773Y-5.2576
X7.3438Y-5.046
X3.1092Y-3.3055
X3.3592Y-3.2055
X4.6553Y-3.503
X4.9053Y-3.403
X3.4832Y-4.8959
X3.7332Y-4.7959
X2.3612Y-2.5061
X2.6112Y-2.4061
X4.4308Y-5.1577
X4.6974Y-5.1961
X6.9261Y-3.5029
X7.1761Y-3.4029
X9.8682Y-3.3053
X10.1182Y-3.2053
X1.9872Y-4.8073
X2.2372Y-4.7073
X9.4942Y-4.8072
X9.7442Y-4.7072
X8.3721Y-4.0534
X8.6221Y-3.9534
X6.9261Y-4.2509
X7.1761Y-4.1509
X9.1201Y-3.254
X9.3701Y-3.154
X4.6553Y-4.251
X4.9053Y-4.151
X2.3612Y-4.0022
X2.6112Y-3.9022
X3.1092Y-4.0535
X3.3592Y-3.9535
X10.6162Y-2.7463
X10.8662Y-2.6463
X1.6132Y-2.5574
X1.8632Y-2.4574
X10.6162Y-4.2423
X10.8662Y-4.1423
X0.8651Y-4.2424
X1.1151Y-4.1424
X3.1092Y-2.5574
X3.3592Y-2.4574
X3.8573Y-2.6518
X4.1073Y-2.5518
X0.8651Y-3.4944
X1.1151Y-3.3944
X7.6241Y-2.6517
X7.8741Y-2.5517
X7.9981Y-4.8958
X8.2481Y-4.7958
X9.1201Y-2.506
X9.3701Y-2.406
X2.7352Y-4.8073
X2.9852Y-4.7073
X9.8682Y-4.0534
X10.1182Y-3.9534
X8.3721Y-2.5573
X8.6221Y-2.4573
X3.8573Y-3.3999
X4.1073Y-3.2999
X10.6162Y-3.4943
X10.8662Y-3.3943
X7.6241Y-4.1478
X7.8741Y-4.0478
X0.8651Y-2.7464
X1.1151Y-2.6464
X2.3612Y-3.2541
X2.6112Y-3.1541
X1.6132Y-4.0535
X1.8632Y-3.9535
T4
X1.7632Y-2.6574
X10.7662Y-4.3423
X1.0151Y-4.3424
X3.2592Y-2.6574
X4.0073Y-2.7518
X1.0151Y-3.5944
X7.7741Y-2.7517
X8.1481Y-4.9958
X9.2701Y-2.606
X2.8852Y-4.9073
X10.0182Y-4.1534
X8.5221Y-2.6573
X4.0073Y-3.4999
X10.7662Y-3.5943
X7.7741Y-4.2478
X1.0151Y-2.8464
X2.5112Y-3.3541
X1.7632Y-4.1535
X1.7632Y-3.4054
X8.5221Y-3.4054
X4.0073Y-4.2479
X10.0182Y-2.6573
X8.8961Y-4.9072
X7.7741Y-3.4997
X9.2701Y-4.1021
X7.1639Y-5.0344
X3.2592Y-3.4055
X4.7553Y-3.303
X3.6332Y-4.9959
X2.5112Y-2.6061
X4.6175Y-5.0345
X7.0261Y-3.3029
X10.0182Y-3.4053
X2.1372Y-4.9073
X9.6442Y-4.9072
X8.5221Y-4.1534
X7.0261Y-4.0509
X9.2701Y-3.354
X4.7553Y-4.051
X2.5112Y-4.1022
X3.2592Y-4.1535
X10.7662Y-2.8463
T0
M30
