G04 #@! TF.GenerationSoftware,KiCad,Pcbnew,(5.1.4)-1*
G04 #@! TF.CreationDate,2021-09-15T18:24:51-07:00*
G04 #@! TF.ProjectId,Panel,50616e65-6c2e-46b6-9963-61645f706362,rev?*
G04 #@! TF.SameCoordinates,Original*
G04 #@! TF.FileFunction,Soldermask,Top*
G04 #@! TF.FilePolarity,Negative*
%FSLAX46Y46*%
G04 Gerber Fmt 4.6, Leading zero omitted, Abs format (unit mm)*
G04 Created by KiCad (PCBNEW (5.1.4)-1) date 2021-09-15 18:24:51*
%MOMM*%
%LPD*%
G04 APERTURE LIST*
%ADD10C,1.000000*%
%ADD11C,0.787400*%
%ADD12O,1.300000X2.600000*%
%ADD13O,1.100000X2.200000*%
%ADD14C,0.100000*%
%ADD15C,1.250000*%
%ADD16C,3.500000*%
%ADD17R,1.200000X0.900000*%
%ADD18C,1.701800*%
%ADD19C,3.987800*%
%ADD20C,3.000000*%
%ADD21C,0.875000*%
%ADD22C,0.975000*%
G04 APERTURE END LIST*
D10*
X4121772Y-45195578D02*
G75*
G03X4121772Y-45195578I-500000J0D01*
G01*
X296121772Y-45195578D02*
G75*
G03X296121772Y-45195578I-500000J0D01*
G01*
X296121772Y-157195578D02*
G75*
G03X296121772Y-157195578I-500000J0D01*
G01*
D11*
X160758265Y-51674229D03*
X162028265Y-51674229D03*
X165838265Y-51674229D03*
X164568265Y-51674229D03*
X163298265Y-51674229D03*
X133410886Y-51676789D03*
X134680886Y-51676789D03*
X138490886Y-51676789D03*
X137220886Y-51676789D03*
X135950886Y-51676789D03*
X138490265Y-150722229D03*
X137220265Y-150722229D03*
X133410265Y-150722229D03*
X134680265Y-150722229D03*
X135950265Y-150722229D03*
X165840265Y-150722229D03*
X164570265Y-150722229D03*
X160760265Y-150722229D03*
X162030265Y-150722229D03*
X163300265Y-150722229D03*
X287621772Y-43655578D03*
X287621772Y-44925578D03*
X287621772Y-48735578D03*
X287621772Y-47465578D03*
X287621772Y-46195578D03*
X287621772Y-153655578D03*
X287621772Y-154925578D03*
X287621772Y-158735578D03*
X287621772Y-157465578D03*
X287621772Y-156195578D03*
X11621772Y-158735578D03*
X11621772Y-157465578D03*
X11621772Y-153655578D03*
X11621772Y-154925578D03*
X11621772Y-156195578D03*
X11621772Y-48735578D03*
X11621772Y-47465578D03*
X11621772Y-43655578D03*
X11621772Y-44925578D03*
X11621772Y-46195578D03*
X158101886Y-110120789D03*
X158101886Y-108850789D03*
X158101886Y-105040789D03*
X158101886Y-106310789D03*
X158101886Y-107580789D03*
X141149886Y-105040789D03*
X141149886Y-106310789D03*
X141149886Y-110120789D03*
X141149886Y-108850789D03*
X141149886Y-107580789D03*
X158096886Y-84600789D03*
X158096886Y-83330789D03*
X158096886Y-79520789D03*
X158096886Y-80790789D03*
X158096886Y-82060789D03*
X141144886Y-79520789D03*
X141144886Y-80790789D03*
X141144886Y-84600789D03*
X141144886Y-83330789D03*
X141144886Y-82060789D03*
X168485772Y-90849578D03*
X168485772Y-92119578D03*
X168485772Y-95929578D03*
X168485772Y-94659578D03*
X168485772Y-93389578D03*
X130760265Y-95932229D03*
X130760265Y-94662229D03*
X130760265Y-90852229D03*
X130760265Y-92122229D03*
X130760265Y-93392229D03*
X283437773Y-93835577D03*
X283437773Y-92565577D03*
X283437773Y-88755577D03*
X283437773Y-90025577D03*
X283437773Y-91295577D03*
X15808265Y-88758229D03*
X15808265Y-90028229D03*
X15808265Y-93838229D03*
X15808265Y-92568229D03*
X15808265Y-91298229D03*
X200201772Y-59917578D03*
X198931772Y-59917578D03*
X195121772Y-59917578D03*
X196391772Y-59917578D03*
X197661772Y-59917578D03*
X238001772Y-56216577D03*
X236731772Y-56216577D03*
X232921772Y-56216577D03*
X234191772Y-56216577D03*
X235461772Y-56216577D03*
X275801773Y-62319577D03*
X274531773Y-62319577D03*
X270721773Y-62319577D03*
X271991773Y-62319577D03*
X273261773Y-62319577D03*
X203821772Y-136869577D03*
X205091772Y-136869577D03*
X208901772Y-136869577D03*
X207631772Y-136869577D03*
X206361772Y-136869577D03*
X242221772Y-134619577D03*
X243491772Y-134619577D03*
X247301772Y-134619577D03*
X246031772Y-134619577D03*
X244761772Y-134619577D03*
X270721772Y-120271578D03*
X271991772Y-120271578D03*
X275801772Y-120271578D03*
X274531772Y-120271578D03*
X273261772Y-120271578D03*
X90344266Y-136872228D03*
X91614266Y-136872228D03*
X95424266Y-136872228D03*
X94154266Y-136872228D03*
X92884266Y-136872228D03*
X51944265Y-134622229D03*
X53214265Y-134622229D03*
X57024265Y-134622229D03*
X55754265Y-134622229D03*
X54484265Y-134622229D03*
X23444265Y-120274229D03*
X24714265Y-120274229D03*
X28524265Y-120274229D03*
X27254265Y-120274229D03*
X25984265Y-120274229D03*
X104124265Y-59920229D03*
X102854265Y-59920229D03*
X99044265Y-59920229D03*
X100314265Y-59920229D03*
X101584265Y-59920229D03*
X66324265Y-56219230D03*
X65054265Y-56219230D03*
X61244265Y-56219230D03*
X62514265Y-56219230D03*
X63784265Y-56219230D03*
X28524265Y-62322229D03*
X27254265Y-62322229D03*
X23444265Y-62322229D03*
X24714265Y-62322229D03*
X25984265Y-62322229D03*
D12*
X153945886Y-103445789D03*
X145305886Y-103445789D03*
D13*
X153945886Y-108805789D03*
X145305886Y-108805789D03*
D14*
G36*
X148625390Y-117421993D02*
G01*
X148649659Y-117425593D01*
X148673457Y-117431554D01*
X148696557Y-117439819D01*
X148718735Y-117450309D01*
X148739779Y-117462922D01*
X148759484Y-117477536D01*
X148777663Y-117494012D01*
X148794139Y-117512191D01*
X148808753Y-117531896D01*
X148821366Y-117552940D01*
X148831856Y-117575118D01*
X148840121Y-117598218D01*
X148846082Y-117622016D01*
X148849682Y-117646285D01*
X148850886Y-117670789D01*
X148850886Y-118920789D01*
X148849682Y-118945293D01*
X148846082Y-118969562D01*
X148840121Y-118993360D01*
X148831856Y-119016460D01*
X148821366Y-119038638D01*
X148808753Y-119059682D01*
X148794139Y-119079387D01*
X148777663Y-119097566D01*
X148759484Y-119114042D01*
X148739779Y-119128656D01*
X148718735Y-119141269D01*
X148696557Y-119151759D01*
X148673457Y-119160024D01*
X148649659Y-119165985D01*
X148625390Y-119169585D01*
X148600886Y-119170789D01*
X147850886Y-119170789D01*
X147826382Y-119169585D01*
X147802113Y-119165985D01*
X147778315Y-119160024D01*
X147755215Y-119151759D01*
X147733037Y-119141269D01*
X147711993Y-119128656D01*
X147692288Y-119114042D01*
X147674109Y-119097566D01*
X147657633Y-119079387D01*
X147643019Y-119059682D01*
X147630406Y-119038638D01*
X147619916Y-119016460D01*
X147611651Y-118993360D01*
X147605690Y-118969562D01*
X147602090Y-118945293D01*
X147600886Y-118920789D01*
X147600886Y-117670789D01*
X147602090Y-117646285D01*
X147605690Y-117622016D01*
X147611651Y-117598218D01*
X147619916Y-117575118D01*
X147630406Y-117552940D01*
X147643019Y-117531896D01*
X147657633Y-117512191D01*
X147674109Y-117494012D01*
X147692288Y-117477536D01*
X147711993Y-117462922D01*
X147733037Y-117450309D01*
X147755215Y-117439819D01*
X147778315Y-117431554D01*
X147802113Y-117425593D01*
X147826382Y-117421993D01*
X147850886Y-117420789D01*
X148600886Y-117420789D01*
X148625390Y-117421993D01*
X148625390Y-117421993D01*
G37*
D15*
X148225886Y-118295789D03*
D14*
G36*
X151425390Y-117421993D02*
G01*
X151449659Y-117425593D01*
X151473457Y-117431554D01*
X151496557Y-117439819D01*
X151518735Y-117450309D01*
X151539779Y-117462922D01*
X151559484Y-117477536D01*
X151577663Y-117494012D01*
X151594139Y-117512191D01*
X151608753Y-117531896D01*
X151621366Y-117552940D01*
X151631856Y-117575118D01*
X151640121Y-117598218D01*
X151646082Y-117622016D01*
X151649682Y-117646285D01*
X151650886Y-117670789D01*
X151650886Y-118920789D01*
X151649682Y-118945293D01*
X151646082Y-118969562D01*
X151640121Y-118993360D01*
X151631856Y-119016460D01*
X151621366Y-119038638D01*
X151608753Y-119059682D01*
X151594139Y-119079387D01*
X151577663Y-119097566D01*
X151559484Y-119114042D01*
X151539779Y-119128656D01*
X151518735Y-119141269D01*
X151496557Y-119151759D01*
X151473457Y-119160024D01*
X151449659Y-119165985D01*
X151425390Y-119169585D01*
X151400886Y-119170789D01*
X150650886Y-119170789D01*
X150626382Y-119169585D01*
X150602113Y-119165985D01*
X150578315Y-119160024D01*
X150555215Y-119151759D01*
X150533037Y-119141269D01*
X150511993Y-119128656D01*
X150492288Y-119114042D01*
X150474109Y-119097566D01*
X150457633Y-119079387D01*
X150443019Y-119059682D01*
X150430406Y-119038638D01*
X150419916Y-119016460D01*
X150411651Y-118993360D01*
X150405690Y-118969562D01*
X150402090Y-118945293D01*
X150400886Y-118920789D01*
X150400886Y-117670789D01*
X150402090Y-117646285D01*
X150405690Y-117622016D01*
X150411651Y-117598218D01*
X150419916Y-117575118D01*
X150430406Y-117552940D01*
X150443019Y-117531896D01*
X150457633Y-117512191D01*
X150474109Y-117494012D01*
X150492288Y-117477536D01*
X150511993Y-117462922D01*
X150533037Y-117450309D01*
X150555215Y-117439819D01*
X150578315Y-117431554D01*
X150602113Y-117425593D01*
X150626382Y-117421993D01*
X150650886Y-117420789D01*
X151400886Y-117420789D01*
X151425390Y-117421993D01*
X151425390Y-117421993D01*
G37*
D15*
X151025886Y-118295789D03*
D14*
G36*
X146275390Y-116621993D02*
G01*
X146299659Y-116625593D01*
X146323457Y-116631554D01*
X146346557Y-116639819D01*
X146368735Y-116650309D01*
X146389779Y-116662922D01*
X146409484Y-116677536D01*
X146427663Y-116694012D01*
X146444139Y-116712191D01*
X146458753Y-116731896D01*
X146471366Y-116752940D01*
X146481856Y-116775118D01*
X146490121Y-116798218D01*
X146496082Y-116822016D01*
X146499682Y-116846285D01*
X146500886Y-116870789D01*
X146500886Y-117620789D01*
X146499682Y-117645293D01*
X146496082Y-117669562D01*
X146490121Y-117693360D01*
X146481856Y-117716460D01*
X146471366Y-117738638D01*
X146458753Y-117759682D01*
X146444139Y-117779387D01*
X146427663Y-117797566D01*
X146409484Y-117814042D01*
X146389779Y-117828656D01*
X146368735Y-117841269D01*
X146346557Y-117851759D01*
X146323457Y-117860024D01*
X146299659Y-117865985D01*
X146275390Y-117869585D01*
X146250886Y-117870789D01*
X145000886Y-117870789D01*
X144976382Y-117869585D01*
X144952113Y-117865985D01*
X144928315Y-117860024D01*
X144905215Y-117851759D01*
X144883037Y-117841269D01*
X144861993Y-117828656D01*
X144842288Y-117814042D01*
X144824109Y-117797566D01*
X144807633Y-117779387D01*
X144793019Y-117759682D01*
X144780406Y-117738638D01*
X144769916Y-117716460D01*
X144761651Y-117693360D01*
X144755690Y-117669562D01*
X144752090Y-117645293D01*
X144750886Y-117620789D01*
X144750886Y-116870789D01*
X144752090Y-116846285D01*
X144755690Y-116822016D01*
X144761651Y-116798218D01*
X144769916Y-116775118D01*
X144780406Y-116752940D01*
X144793019Y-116731896D01*
X144807633Y-116712191D01*
X144824109Y-116694012D01*
X144842288Y-116677536D01*
X144861993Y-116662922D01*
X144883037Y-116650309D01*
X144905215Y-116639819D01*
X144928315Y-116631554D01*
X144952113Y-116625593D01*
X144976382Y-116621993D01*
X145000886Y-116620789D01*
X146250886Y-116620789D01*
X146275390Y-116621993D01*
X146275390Y-116621993D01*
G37*
D15*
X145625886Y-117245789D03*
D14*
G36*
X146275390Y-119421993D02*
G01*
X146299659Y-119425593D01*
X146323457Y-119431554D01*
X146346557Y-119439819D01*
X146368735Y-119450309D01*
X146389779Y-119462922D01*
X146409484Y-119477536D01*
X146427663Y-119494012D01*
X146444139Y-119512191D01*
X146458753Y-119531896D01*
X146471366Y-119552940D01*
X146481856Y-119575118D01*
X146490121Y-119598218D01*
X146496082Y-119622016D01*
X146499682Y-119646285D01*
X146500886Y-119670789D01*
X146500886Y-120420789D01*
X146499682Y-120445293D01*
X146496082Y-120469562D01*
X146490121Y-120493360D01*
X146481856Y-120516460D01*
X146471366Y-120538638D01*
X146458753Y-120559682D01*
X146444139Y-120579387D01*
X146427663Y-120597566D01*
X146409484Y-120614042D01*
X146389779Y-120628656D01*
X146368735Y-120641269D01*
X146346557Y-120651759D01*
X146323457Y-120660024D01*
X146299659Y-120665985D01*
X146275390Y-120669585D01*
X146250886Y-120670789D01*
X145000886Y-120670789D01*
X144976382Y-120669585D01*
X144952113Y-120665985D01*
X144928315Y-120660024D01*
X144905215Y-120651759D01*
X144883037Y-120641269D01*
X144861993Y-120628656D01*
X144842288Y-120614042D01*
X144824109Y-120597566D01*
X144807633Y-120579387D01*
X144793019Y-120559682D01*
X144780406Y-120538638D01*
X144769916Y-120516460D01*
X144761651Y-120493360D01*
X144755690Y-120469562D01*
X144752090Y-120445293D01*
X144750886Y-120420789D01*
X144750886Y-119670789D01*
X144752090Y-119646285D01*
X144755690Y-119622016D01*
X144761651Y-119598218D01*
X144769916Y-119575118D01*
X144780406Y-119552940D01*
X144793019Y-119531896D01*
X144807633Y-119512191D01*
X144824109Y-119494012D01*
X144842288Y-119477536D01*
X144861993Y-119462922D01*
X144883037Y-119450309D01*
X144905215Y-119439819D01*
X144928315Y-119431554D01*
X144952113Y-119425593D01*
X144976382Y-119421993D01*
X145000886Y-119420789D01*
X146250886Y-119420789D01*
X146275390Y-119421993D01*
X146275390Y-119421993D01*
G37*
D15*
X145625886Y-120045789D03*
D16*
X143625886Y-111395789D03*
X155625886Y-111380789D03*
D17*
X153625886Y-116995789D03*
X153625886Y-120295789D03*
D14*
G36*
X154270390Y-71771993D02*
G01*
X154294659Y-71775593D01*
X154318457Y-71781554D01*
X154341557Y-71789819D01*
X154363735Y-71800309D01*
X154384779Y-71812922D01*
X154404484Y-71827536D01*
X154422663Y-71844012D01*
X154439139Y-71862191D01*
X154453753Y-71881896D01*
X154466366Y-71902940D01*
X154476856Y-71925118D01*
X154485121Y-71948218D01*
X154491082Y-71972016D01*
X154494682Y-71996285D01*
X154495886Y-72020789D01*
X154495886Y-72770789D01*
X154494682Y-72795293D01*
X154491082Y-72819562D01*
X154485121Y-72843360D01*
X154476856Y-72866460D01*
X154466366Y-72888638D01*
X154453753Y-72909682D01*
X154439139Y-72929387D01*
X154422663Y-72947566D01*
X154404484Y-72964042D01*
X154384779Y-72978656D01*
X154363735Y-72991269D01*
X154341557Y-73001759D01*
X154318457Y-73010024D01*
X154294659Y-73015985D01*
X154270390Y-73019585D01*
X154245886Y-73020789D01*
X152995886Y-73020789D01*
X152971382Y-73019585D01*
X152947113Y-73015985D01*
X152923315Y-73010024D01*
X152900215Y-73001759D01*
X152878037Y-72991269D01*
X152856993Y-72978656D01*
X152837288Y-72964042D01*
X152819109Y-72947566D01*
X152802633Y-72929387D01*
X152788019Y-72909682D01*
X152775406Y-72888638D01*
X152764916Y-72866460D01*
X152756651Y-72843360D01*
X152750690Y-72819562D01*
X152747090Y-72795293D01*
X152745886Y-72770789D01*
X152745886Y-72020789D01*
X152747090Y-71996285D01*
X152750690Y-71972016D01*
X152756651Y-71948218D01*
X152764916Y-71925118D01*
X152775406Y-71902940D01*
X152788019Y-71881896D01*
X152802633Y-71862191D01*
X152819109Y-71844012D01*
X152837288Y-71827536D01*
X152856993Y-71812922D01*
X152878037Y-71800309D01*
X152900215Y-71789819D01*
X152923315Y-71781554D01*
X152947113Y-71775593D01*
X152971382Y-71771993D01*
X152995886Y-71770789D01*
X154245886Y-71770789D01*
X154270390Y-71771993D01*
X154270390Y-71771993D01*
G37*
D15*
X153620886Y-72395789D03*
D14*
G36*
X154270390Y-68971993D02*
G01*
X154294659Y-68975593D01*
X154318457Y-68981554D01*
X154341557Y-68989819D01*
X154363735Y-69000309D01*
X154384779Y-69012922D01*
X154404484Y-69027536D01*
X154422663Y-69044012D01*
X154439139Y-69062191D01*
X154453753Y-69081896D01*
X154466366Y-69102940D01*
X154476856Y-69125118D01*
X154485121Y-69148218D01*
X154491082Y-69172016D01*
X154494682Y-69196285D01*
X154495886Y-69220789D01*
X154495886Y-69970789D01*
X154494682Y-69995293D01*
X154491082Y-70019562D01*
X154485121Y-70043360D01*
X154476856Y-70066460D01*
X154466366Y-70088638D01*
X154453753Y-70109682D01*
X154439139Y-70129387D01*
X154422663Y-70147566D01*
X154404484Y-70164042D01*
X154384779Y-70178656D01*
X154363735Y-70191269D01*
X154341557Y-70201759D01*
X154318457Y-70210024D01*
X154294659Y-70215985D01*
X154270390Y-70219585D01*
X154245886Y-70220789D01*
X152995886Y-70220789D01*
X152971382Y-70219585D01*
X152947113Y-70215985D01*
X152923315Y-70210024D01*
X152900215Y-70201759D01*
X152878037Y-70191269D01*
X152856993Y-70178656D01*
X152837288Y-70164042D01*
X152819109Y-70147566D01*
X152802633Y-70129387D01*
X152788019Y-70109682D01*
X152775406Y-70088638D01*
X152764916Y-70066460D01*
X152756651Y-70043360D01*
X152750690Y-70019562D01*
X152747090Y-69995293D01*
X152745886Y-69970789D01*
X152745886Y-69220789D01*
X152747090Y-69196285D01*
X152750690Y-69172016D01*
X152756651Y-69148218D01*
X152764916Y-69125118D01*
X152775406Y-69102940D01*
X152788019Y-69081896D01*
X152802633Y-69062191D01*
X152819109Y-69044012D01*
X152837288Y-69027536D01*
X152856993Y-69012922D01*
X152878037Y-69000309D01*
X152900215Y-68989819D01*
X152923315Y-68981554D01*
X152947113Y-68975593D01*
X152971382Y-68971993D01*
X152995886Y-68970789D01*
X154245886Y-68970789D01*
X154270390Y-68971993D01*
X154270390Y-68971993D01*
G37*
D15*
X153620886Y-69595789D03*
D12*
X145300886Y-86195789D03*
X153940886Y-86195789D03*
D13*
X145300886Y-80835789D03*
X153940886Y-80835789D03*
D14*
G36*
X151420390Y-70471993D02*
G01*
X151444659Y-70475593D01*
X151468457Y-70481554D01*
X151491557Y-70489819D01*
X151513735Y-70500309D01*
X151534779Y-70512922D01*
X151554484Y-70527536D01*
X151572663Y-70544012D01*
X151589139Y-70562191D01*
X151603753Y-70581896D01*
X151616366Y-70602940D01*
X151626856Y-70625118D01*
X151635121Y-70648218D01*
X151641082Y-70672016D01*
X151644682Y-70696285D01*
X151645886Y-70720789D01*
X151645886Y-71970789D01*
X151644682Y-71995293D01*
X151641082Y-72019562D01*
X151635121Y-72043360D01*
X151626856Y-72066460D01*
X151616366Y-72088638D01*
X151603753Y-72109682D01*
X151589139Y-72129387D01*
X151572663Y-72147566D01*
X151554484Y-72164042D01*
X151534779Y-72178656D01*
X151513735Y-72191269D01*
X151491557Y-72201759D01*
X151468457Y-72210024D01*
X151444659Y-72215985D01*
X151420390Y-72219585D01*
X151395886Y-72220789D01*
X150645886Y-72220789D01*
X150621382Y-72219585D01*
X150597113Y-72215985D01*
X150573315Y-72210024D01*
X150550215Y-72201759D01*
X150528037Y-72191269D01*
X150506993Y-72178656D01*
X150487288Y-72164042D01*
X150469109Y-72147566D01*
X150452633Y-72129387D01*
X150438019Y-72109682D01*
X150425406Y-72088638D01*
X150414916Y-72066460D01*
X150406651Y-72043360D01*
X150400690Y-72019562D01*
X150397090Y-71995293D01*
X150395886Y-71970789D01*
X150395886Y-70720789D01*
X150397090Y-70696285D01*
X150400690Y-70672016D01*
X150406651Y-70648218D01*
X150414916Y-70625118D01*
X150425406Y-70602940D01*
X150438019Y-70581896D01*
X150452633Y-70562191D01*
X150469109Y-70544012D01*
X150487288Y-70527536D01*
X150506993Y-70512922D01*
X150528037Y-70500309D01*
X150550215Y-70489819D01*
X150573315Y-70481554D01*
X150597113Y-70475593D01*
X150621382Y-70471993D01*
X150645886Y-70470789D01*
X151395886Y-70470789D01*
X151420390Y-70471993D01*
X151420390Y-70471993D01*
G37*
D15*
X151020886Y-71345789D03*
D14*
G36*
X148620390Y-70471993D02*
G01*
X148644659Y-70475593D01*
X148668457Y-70481554D01*
X148691557Y-70489819D01*
X148713735Y-70500309D01*
X148734779Y-70512922D01*
X148754484Y-70527536D01*
X148772663Y-70544012D01*
X148789139Y-70562191D01*
X148803753Y-70581896D01*
X148816366Y-70602940D01*
X148826856Y-70625118D01*
X148835121Y-70648218D01*
X148841082Y-70672016D01*
X148844682Y-70696285D01*
X148845886Y-70720789D01*
X148845886Y-71970789D01*
X148844682Y-71995293D01*
X148841082Y-72019562D01*
X148835121Y-72043360D01*
X148826856Y-72066460D01*
X148816366Y-72088638D01*
X148803753Y-72109682D01*
X148789139Y-72129387D01*
X148772663Y-72147566D01*
X148754484Y-72164042D01*
X148734779Y-72178656D01*
X148713735Y-72191269D01*
X148691557Y-72201759D01*
X148668457Y-72210024D01*
X148644659Y-72215985D01*
X148620390Y-72219585D01*
X148595886Y-72220789D01*
X147845886Y-72220789D01*
X147821382Y-72219585D01*
X147797113Y-72215985D01*
X147773315Y-72210024D01*
X147750215Y-72201759D01*
X147728037Y-72191269D01*
X147706993Y-72178656D01*
X147687288Y-72164042D01*
X147669109Y-72147566D01*
X147652633Y-72129387D01*
X147638019Y-72109682D01*
X147625406Y-72088638D01*
X147614916Y-72066460D01*
X147606651Y-72043360D01*
X147600690Y-72019562D01*
X147597090Y-71995293D01*
X147595886Y-71970789D01*
X147595886Y-70720789D01*
X147597090Y-70696285D01*
X147600690Y-70672016D01*
X147606651Y-70648218D01*
X147614916Y-70625118D01*
X147625406Y-70602940D01*
X147638019Y-70581896D01*
X147652633Y-70562191D01*
X147669109Y-70544012D01*
X147687288Y-70527536D01*
X147706993Y-70512922D01*
X147728037Y-70500309D01*
X147750215Y-70489819D01*
X147773315Y-70481554D01*
X147797113Y-70475593D01*
X147821382Y-70471993D01*
X147845886Y-70470789D01*
X148595886Y-70470789D01*
X148620390Y-70471993D01*
X148620390Y-70471993D01*
G37*
D15*
X148220886Y-71345789D03*
D17*
X145620886Y-72645789D03*
X145620886Y-69345789D03*
D16*
X143620886Y-78260789D03*
X155620886Y-78245789D03*
D18*
X20704265Y-91298229D03*
X30864265Y-91298229D03*
D19*
X25784265Y-91298229D03*
D20*
X21974265Y-88758229D03*
X28324265Y-86218229D03*
D14*
G36*
X110261956Y-78647282D02*
G01*
X110283191Y-78650432D01*
X110304015Y-78655648D01*
X110324227Y-78662880D01*
X110343633Y-78672059D01*
X110362046Y-78683095D01*
X110379289Y-78695883D01*
X110395195Y-78710299D01*
X110409611Y-78726205D01*
X110422399Y-78743448D01*
X110433435Y-78761861D01*
X110442614Y-78781267D01*
X110449846Y-78801479D01*
X110455062Y-78822303D01*
X110458212Y-78843538D01*
X110459265Y-78864979D01*
X110459265Y-79302479D01*
X110458212Y-79323920D01*
X110455062Y-79345155D01*
X110449846Y-79365979D01*
X110442614Y-79386191D01*
X110433435Y-79405597D01*
X110422399Y-79424010D01*
X110409611Y-79441253D01*
X110395195Y-79457159D01*
X110379289Y-79471575D01*
X110362046Y-79484363D01*
X110343633Y-79495399D01*
X110324227Y-79504578D01*
X110304015Y-79511810D01*
X110283191Y-79517026D01*
X110261956Y-79520176D01*
X110240515Y-79521229D01*
X109728015Y-79521229D01*
X109706574Y-79520176D01*
X109685339Y-79517026D01*
X109664515Y-79511810D01*
X109644303Y-79504578D01*
X109624897Y-79495399D01*
X109606484Y-79484363D01*
X109589241Y-79471575D01*
X109573335Y-79457159D01*
X109558919Y-79441253D01*
X109546131Y-79424010D01*
X109535095Y-79405597D01*
X109525916Y-79386191D01*
X109518684Y-79365979D01*
X109513468Y-79345155D01*
X109510318Y-79323920D01*
X109509265Y-79302479D01*
X109509265Y-78864979D01*
X109510318Y-78843538D01*
X109513468Y-78822303D01*
X109518684Y-78801479D01*
X109525916Y-78781267D01*
X109535095Y-78761861D01*
X109546131Y-78743448D01*
X109558919Y-78726205D01*
X109573335Y-78710299D01*
X109589241Y-78695883D01*
X109606484Y-78683095D01*
X109624897Y-78672059D01*
X109644303Y-78662880D01*
X109664515Y-78655648D01*
X109685339Y-78650432D01*
X109706574Y-78647282D01*
X109728015Y-78646229D01*
X110240515Y-78646229D01*
X110261956Y-78647282D01*
X110261956Y-78647282D01*
G37*
D21*
X109984265Y-79083729D03*
D14*
G36*
X110261956Y-77072282D02*
G01*
X110283191Y-77075432D01*
X110304015Y-77080648D01*
X110324227Y-77087880D01*
X110343633Y-77097059D01*
X110362046Y-77108095D01*
X110379289Y-77120883D01*
X110395195Y-77135299D01*
X110409611Y-77151205D01*
X110422399Y-77168448D01*
X110433435Y-77186861D01*
X110442614Y-77206267D01*
X110449846Y-77226479D01*
X110455062Y-77247303D01*
X110458212Y-77268538D01*
X110459265Y-77289979D01*
X110459265Y-77727479D01*
X110458212Y-77748920D01*
X110455062Y-77770155D01*
X110449846Y-77790979D01*
X110442614Y-77811191D01*
X110433435Y-77830597D01*
X110422399Y-77849010D01*
X110409611Y-77866253D01*
X110395195Y-77882159D01*
X110379289Y-77896575D01*
X110362046Y-77909363D01*
X110343633Y-77920399D01*
X110324227Y-77929578D01*
X110304015Y-77936810D01*
X110283191Y-77942026D01*
X110261956Y-77945176D01*
X110240515Y-77946229D01*
X109728015Y-77946229D01*
X109706574Y-77945176D01*
X109685339Y-77942026D01*
X109664515Y-77936810D01*
X109644303Y-77929578D01*
X109624897Y-77920399D01*
X109606484Y-77909363D01*
X109589241Y-77896575D01*
X109573335Y-77882159D01*
X109558919Y-77866253D01*
X109546131Y-77849010D01*
X109535095Y-77830597D01*
X109525916Y-77811191D01*
X109518684Y-77790979D01*
X109513468Y-77770155D01*
X109510318Y-77748920D01*
X109509265Y-77727479D01*
X109509265Y-77289979D01*
X109510318Y-77268538D01*
X109513468Y-77247303D01*
X109518684Y-77226479D01*
X109525916Y-77206267D01*
X109535095Y-77186861D01*
X109546131Y-77168448D01*
X109558919Y-77151205D01*
X109573335Y-77135299D01*
X109589241Y-77120883D01*
X109606484Y-77108095D01*
X109624897Y-77097059D01*
X109644303Y-77087880D01*
X109664515Y-77080648D01*
X109685339Y-77075432D01*
X109706574Y-77072282D01*
X109728015Y-77071229D01*
X110240515Y-77071229D01*
X110261956Y-77072282D01*
X110261956Y-77072282D01*
G37*
D21*
X109984265Y-77508729D03*
D18*
X96704265Y-107896229D03*
X106864265Y-107896229D03*
D19*
X101784265Y-107896229D03*
D20*
X97974265Y-105356229D03*
X104324265Y-102816229D03*
D18*
X49204265Y-124646229D03*
X59364265Y-124646229D03*
D19*
X54284265Y-124646229D03*
D20*
X50474265Y-122106229D03*
X56824265Y-119566229D03*
D18*
X68204265Y-124646229D03*
X78364265Y-124646229D03*
D19*
X73284265Y-124646229D03*
D20*
X69474265Y-122106229D03*
X75824265Y-119566229D03*
D18*
X87204264Y-126896229D03*
X97364264Y-126896229D03*
D19*
X92284264Y-126896229D03*
D20*
X88474264Y-124356229D03*
X94824264Y-121816229D03*
D18*
X58704265Y-104195229D03*
X68864265Y-104195229D03*
D19*
X63784265Y-104195229D03*
D20*
X59974265Y-101655229D03*
X66324265Y-99115229D03*
D18*
X121682672Y-130416229D03*
X112883854Y-125336229D03*
D19*
X117283263Y-127876229D03*
D20*
X119312820Y-131980934D03*
X112543558Y-131005638D03*
D14*
G36*
X116536956Y-66522282D02*
G01*
X116558191Y-66525432D01*
X116579015Y-66530648D01*
X116599227Y-66537880D01*
X116618633Y-66547059D01*
X116637046Y-66558095D01*
X116654289Y-66570883D01*
X116670195Y-66585299D01*
X116684611Y-66601205D01*
X116697399Y-66618448D01*
X116708435Y-66636861D01*
X116717614Y-66656267D01*
X116724846Y-66676479D01*
X116730062Y-66697303D01*
X116733212Y-66718538D01*
X116734265Y-66739979D01*
X116734265Y-67252479D01*
X116733212Y-67273920D01*
X116730062Y-67295155D01*
X116724846Y-67315979D01*
X116717614Y-67336191D01*
X116708435Y-67355597D01*
X116697399Y-67374010D01*
X116684611Y-67391253D01*
X116670195Y-67407159D01*
X116654289Y-67421575D01*
X116637046Y-67434363D01*
X116618633Y-67445399D01*
X116599227Y-67454578D01*
X116579015Y-67461810D01*
X116558191Y-67467026D01*
X116536956Y-67470176D01*
X116515515Y-67471229D01*
X116078015Y-67471229D01*
X116056574Y-67470176D01*
X116035339Y-67467026D01*
X116014515Y-67461810D01*
X115994303Y-67454578D01*
X115974897Y-67445399D01*
X115956484Y-67434363D01*
X115939241Y-67421575D01*
X115923335Y-67407159D01*
X115908919Y-67391253D01*
X115896131Y-67374010D01*
X115885095Y-67355597D01*
X115875916Y-67336191D01*
X115868684Y-67315979D01*
X115863468Y-67295155D01*
X115860318Y-67273920D01*
X115859265Y-67252479D01*
X115859265Y-66739979D01*
X115860318Y-66718538D01*
X115863468Y-66697303D01*
X115868684Y-66676479D01*
X115875916Y-66656267D01*
X115885095Y-66636861D01*
X115896131Y-66618448D01*
X115908919Y-66601205D01*
X115923335Y-66585299D01*
X115939241Y-66570883D01*
X115956484Y-66558095D01*
X115974897Y-66547059D01*
X115994303Y-66537880D01*
X116014515Y-66530648D01*
X116035339Y-66525432D01*
X116056574Y-66522282D01*
X116078015Y-66521229D01*
X116515515Y-66521229D01*
X116536956Y-66522282D01*
X116536956Y-66522282D01*
G37*
D21*
X116296765Y-66996229D03*
D14*
G36*
X118111956Y-66522282D02*
G01*
X118133191Y-66525432D01*
X118154015Y-66530648D01*
X118174227Y-66537880D01*
X118193633Y-66547059D01*
X118212046Y-66558095D01*
X118229289Y-66570883D01*
X118245195Y-66585299D01*
X118259611Y-66601205D01*
X118272399Y-66618448D01*
X118283435Y-66636861D01*
X118292614Y-66656267D01*
X118299846Y-66676479D01*
X118305062Y-66697303D01*
X118308212Y-66718538D01*
X118309265Y-66739979D01*
X118309265Y-67252479D01*
X118308212Y-67273920D01*
X118305062Y-67295155D01*
X118299846Y-67315979D01*
X118292614Y-67336191D01*
X118283435Y-67355597D01*
X118272399Y-67374010D01*
X118259611Y-67391253D01*
X118245195Y-67407159D01*
X118229289Y-67421575D01*
X118212046Y-67434363D01*
X118193633Y-67445399D01*
X118174227Y-67454578D01*
X118154015Y-67461810D01*
X118133191Y-67467026D01*
X118111956Y-67470176D01*
X118090515Y-67471229D01*
X117653015Y-67471229D01*
X117631574Y-67470176D01*
X117610339Y-67467026D01*
X117589515Y-67461810D01*
X117569303Y-67454578D01*
X117549897Y-67445399D01*
X117531484Y-67434363D01*
X117514241Y-67421575D01*
X117498335Y-67407159D01*
X117483919Y-67391253D01*
X117471131Y-67374010D01*
X117460095Y-67355597D01*
X117450916Y-67336191D01*
X117443684Y-67315979D01*
X117438468Y-67295155D01*
X117435318Y-67273920D01*
X117434265Y-67252479D01*
X117434265Y-66739979D01*
X117435318Y-66718538D01*
X117438468Y-66697303D01*
X117443684Y-66676479D01*
X117450916Y-66656267D01*
X117460095Y-66636861D01*
X117471131Y-66618448D01*
X117483919Y-66601205D01*
X117498335Y-66585299D01*
X117514241Y-66570883D01*
X117531484Y-66558095D01*
X117549897Y-66547059D01*
X117569303Y-66537880D01*
X117589515Y-66530648D01*
X117610339Y-66525432D01*
X117631574Y-66522282D01*
X117653015Y-66521229D01*
X118090515Y-66521229D01*
X118111956Y-66522282D01*
X118111956Y-66522282D01*
G37*
D21*
X117871765Y-66996229D03*
D18*
X58704265Y-85195229D03*
X68864265Y-85195229D03*
D19*
X63784265Y-85195229D03*
D20*
X59974265Y-82655229D03*
X66324265Y-80115229D03*
D18*
X125864265Y-102896229D03*
X115704265Y-102896229D03*
D19*
X120784265Y-102896229D03*
D20*
X124594265Y-105436229D03*
X118244265Y-107976229D03*
D18*
X20704265Y-72298229D03*
X30864265Y-72298229D03*
D19*
X25784265Y-72298229D03*
D20*
X21974265Y-69758229D03*
X28324265Y-67218229D03*
D18*
X39704265Y-67498230D03*
X49864265Y-67498230D03*
D19*
X44784265Y-67498230D03*
D20*
X40974265Y-64958230D03*
X47324265Y-62418230D03*
D18*
X77704265Y-86499229D03*
X87864265Y-86499229D03*
D19*
X82784265Y-86499229D03*
D20*
X78974265Y-83959229D03*
X85324265Y-81419229D03*
D18*
X20704265Y-110298229D03*
X30864265Y-110298229D03*
D19*
X25784265Y-110298229D03*
D20*
X21974265Y-107758229D03*
X28324265Y-105218229D03*
D18*
X77704265Y-105499229D03*
X87864265Y-105499229D03*
D19*
X82784265Y-105499229D03*
D20*
X78974265Y-102959229D03*
X85324265Y-100419229D03*
D18*
X39704265Y-86498229D03*
X49864265Y-86498229D03*
D19*
X44784265Y-86498229D03*
D20*
X40974265Y-83958229D03*
X47324265Y-81418229D03*
D18*
X125864265Y-83896229D03*
X115704265Y-83896229D03*
D19*
X120784265Y-83896229D03*
D20*
X124594265Y-86436229D03*
X118244265Y-88976229D03*
D18*
X77704265Y-67499229D03*
X87864265Y-67499229D03*
D19*
X82784265Y-67499229D03*
D20*
X78974265Y-64959229D03*
X85324265Y-62419229D03*
D18*
X58704265Y-66195228D03*
X68864265Y-66195228D03*
D19*
X63784265Y-66195228D03*
D20*
X59974265Y-63655228D03*
X66324265Y-61115228D03*
D18*
X39704265Y-105498229D03*
X49864265Y-105498229D03*
D19*
X44784265Y-105498229D03*
D20*
X40974265Y-102958229D03*
X47324265Y-100418229D03*
D18*
X96704265Y-69896230D03*
X106864265Y-69896230D03*
D19*
X101784265Y-69896230D03*
D20*
X97974265Y-67356230D03*
X104324265Y-64816230D03*
D18*
X96704265Y-88896229D03*
X106864265Y-88896229D03*
D19*
X101784265Y-88896229D03*
D20*
X97974265Y-86356229D03*
X104324265Y-83816229D03*
D14*
G36*
X113864406Y-74047403D02*
G01*
X113888067Y-74050913D01*
X113911271Y-74056725D01*
X113933793Y-74064783D01*
X113955417Y-74075011D01*
X113975934Y-74087308D01*
X113995147Y-74101558D01*
X114012871Y-74117622D01*
X114028935Y-74135346D01*
X114043185Y-74154559D01*
X114055482Y-74175076D01*
X114065710Y-74196700D01*
X114073768Y-74219222D01*
X114079580Y-74242426D01*
X114083090Y-74266087D01*
X114084264Y-74289979D01*
X114084264Y-74777479D01*
X114083090Y-74801371D01*
X114079580Y-74825032D01*
X114073768Y-74848236D01*
X114065710Y-74870758D01*
X114055482Y-74892382D01*
X114043185Y-74912899D01*
X114028935Y-74932112D01*
X114012871Y-74949836D01*
X113995147Y-74965900D01*
X113975934Y-74980150D01*
X113955417Y-74992447D01*
X113933793Y-75002675D01*
X113911271Y-75010733D01*
X113888067Y-75016545D01*
X113864406Y-75020055D01*
X113840514Y-75021229D01*
X112928014Y-75021229D01*
X112904122Y-75020055D01*
X112880461Y-75016545D01*
X112857257Y-75010733D01*
X112834735Y-75002675D01*
X112813111Y-74992447D01*
X112792594Y-74980150D01*
X112773381Y-74965900D01*
X112755657Y-74949836D01*
X112739593Y-74932112D01*
X112725343Y-74912899D01*
X112713046Y-74892382D01*
X112702818Y-74870758D01*
X112694760Y-74848236D01*
X112688948Y-74825032D01*
X112685438Y-74801371D01*
X112684264Y-74777479D01*
X112684264Y-74289979D01*
X112685438Y-74266087D01*
X112688948Y-74242426D01*
X112694760Y-74219222D01*
X112702818Y-74196700D01*
X112713046Y-74175076D01*
X112725343Y-74154559D01*
X112739593Y-74135346D01*
X112755657Y-74117622D01*
X112773381Y-74101558D01*
X112792594Y-74087308D01*
X112813111Y-74075011D01*
X112834735Y-74064783D01*
X112857257Y-74056725D01*
X112880461Y-74050913D01*
X112904122Y-74047403D01*
X112928014Y-74046229D01*
X113840514Y-74046229D01*
X113864406Y-74047403D01*
X113864406Y-74047403D01*
G37*
D22*
X113384264Y-74533729D03*
D14*
G36*
X113864406Y-72172403D02*
G01*
X113888067Y-72175913D01*
X113911271Y-72181725D01*
X113933793Y-72189783D01*
X113955417Y-72200011D01*
X113975934Y-72212308D01*
X113995147Y-72226558D01*
X114012871Y-72242622D01*
X114028935Y-72260346D01*
X114043185Y-72279559D01*
X114055482Y-72300076D01*
X114065710Y-72321700D01*
X114073768Y-72344222D01*
X114079580Y-72367426D01*
X114083090Y-72391087D01*
X114084264Y-72414979D01*
X114084264Y-72902479D01*
X114083090Y-72926371D01*
X114079580Y-72950032D01*
X114073768Y-72973236D01*
X114065710Y-72995758D01*
X114055482Y-73017382D01*
X114043185Y-73037899D01*
X114028935Y-73057112D01*
X114012871Y-73074836D01*
X113995147Y-73090900D01*
X113975934Y-73105150D01*
X113955417Y-73117447D01*
X113933793Y-73127675D01*
X113911271Y-73135733D01*
X113888067Y-73141545D01*
X113864406Y-73145055D01*
X113840514Y-73146229D01*
X112928014Y-73146229D01*
X112904122Y-73145055D01*
X112880461Y-73141545D01*
X112857257Y-73135733D01*
X112834735Y-73127675D01*
X112813111Y-73117447D01*
X112792594Y-73105150D01*
X112773381Y-73090900D01*
X112755657Y-73074836D01*
X112739593Y-73057112D01*
X112725343Y-73037899D01*
X112713046Y-73017382D01*
X112702818Y-72995758D01*
X112694760Y-72973236D01*
X112688948Y-72950032D01*
X112685438Y-72926371D01*
X112684264Y-72902479D01*
X112684264Y-72414979D01*
X112685438Y-72391087D01*
X112688948Y-72367426D01*
X112694760Y-72344222D01*
X112702818Y-72321700D01*
X112713046Y-72300076D01*
X112725343Y-72279559D01*
X112739593Y-72260346D01*
X112755657Y-72242622D01*
X112773381Y-72226558D01*
X112792594Y-72212308D01*
X112813111Y-72200011D01*
X112834735Y-72189783D01*
X112857257Y-72181725D01*
X112880461Y-72175913D01*
X112904122Y-72172403D01*
X112928014Y-72171229D01*
X113840514Y-72171229D01*
X113864406Y-72172403D01*
X113864406Y-72172403D01*
G37*
D22*
X113384264Y-72658729D03*
D20*
X238001773Y-80112578D03*
X231651773Y-82652578D03*
D19*
X235461773Y-85192578D03*
D18*
X240541773Y-85192578D03*
X230381773Y-85192578D03*
D20*
X200001772Y-64813578D03*
X193651772Y-67353578D03*
D19*
X197461772Y-69893578D03*
D18*
X202541772Y-69893578D03*
X192381772Y-69893578D03*
D20*
X219001772Y-62416577D03*
X212651772Y-64956577D03*
D19*
X216461772Y-67496577D03*
D18*
X221541772Y-67496577D03*
X211381772Y-67496577D03*
D20*
X182303068Y-133542986D03*
X186532330Y-128168282D03*
D19*
X181962773Y-127873577D03*
D18*
X177563364Y-130413577D03*
X186362182Y-125333577D03*
D20*
X276001772Y-67215578D03*
X269651772Y-69755578D03*
D19*
X273461772Y-72295578D03*
D18*
X278541772Y-72295578D03*
X268381772Y-72295578D03*
D20*
X257001772Y-62415578D03*
X250651772Y-64955578D03*
D19*
X254461772Y-67495578D03*
D18*
X259541772Y-67495578D03*
X249381772Y-67495578D03*
D20*
X200001772Y-102813577D03*
X193651772Y-105353577D03*
D19*
X197461772Y-107893577D03*
D18*
X202541772Y-107893577D03*
X192381772Y-107893577D03*
D20*
X219001772Y-100416577D03*
X212651772Y-102956577D03*
D19*
X216461772Y-105496577D03*
D18*
X221541772Y-105496577D03*
X211381772Y-105496577D03*
D20*
X257001772Y-81415578D03*
X250651772Y-83955578D03*
D19*
X254461772Y-86495578D03*
D18*
X259541772Y-86495578D03*
X249381772Y-86495578D03*
D20*
X219001772Y-81416578D03*
X212651772Y-83956578D03*
D19*
X216461772Y-86496578D03*
D18*
X221541772Y-86496578D03*
X211381772Y-86496578D03*
D20*
X238001772Y-61112577D03*
X231651772Y-63652577D03*
D19*
X235461772Y-66192577D03*
D18*
X240541772Y-66192577D03*
X230381772Y-66192577D03*
D20*
X200001772Y-83813578D03*
X193651772Y-86353578D03*
D19*
X197461772Y-88893578D03*
D18*
X202541772Y-88893578D03*
X192381772Y-88893578D03*
D20*
X175921772Y-107973577D03*
X182271772Y-105433577D03*
D19*
X178461772Y-102893577D03*
D18*
X173381772Y-102893577D03*
X183541772Y-102893577D03*
D20*
X175921773Y-88973578D03*
X182271773Y-86433578D03*
D19*
X178461773Y-83893578D03*
D18*
X173381773Y-83893578D03*
X183541773Y-83893578D03*
D20*
X247501772Y-119563578D03*
X241151772Y-122103578D03*
D19*
X244961772Y-124643578D03*
D18*
X250041772Y-124643578D03*
X239881772Y-124643578D03*
D20*
X228501772Y-119563578D03*
X222151772Y-122103578D03*
D19*
X225961772Y-124643578D03*
D18*
X231041772Y-124643578D03*
X220881772Y-124643578D03*
D20*
X209501772Y-121813577D03*
X203151772Y-124353577D03*
D19*
X206961772Y-126893577D03*
D18*
X212041772Y-126893577D03*
X201881772Y-126893577D03*
D20*
X257001772Y-100415577D03*
X250651772Y-102955577D03*
D19*
X254461772Y-105495577D03*
D18*
X259541772Y-105495577D03*
X249381772Y-105495577D03*
D20*
X238001772Y-99112577D03*
X231651772Y-101652577D03*
D19*
X235461772Y-104192577D03*
D18*
X240541772Y-104192577D03*
X230381772Y-104192577D03*
D20*
X276001772Y-86215578D03*
X269651772Y-88755578D03*
D19*
X273461772Y-91295578D03*
D18*
X278541772Y-91295578D03*
X268381772Y-91295578D03*
D20*
X276001772Y-105215577D03*
X269651772Y-107755577D03*
D19*
X273461772Y-110295577D03*
D18*
X278541772Y-110295577D03*
X268381772Y-110295577D03*
D14*
G36*
X189489463Y-78417631D02*
G01*
X189510698Y-78420781D01*
X189531522Y-78425997D01*
X189551734Y-78433229D01*
X189571140Y-78442408D01*
X189589553Y-78453444D01*
X189606796Y-78466232D01*
X189622702Y-78480648D01*
X189637118Y-78496554D01*
X189649906Y-78513797D01*
X189660942Y-78532210D01*
X189670121Y-78551616D01*
X189677353Y-78571828D01*
X189682569Y-78592652D01*
X189685719Y-78613887D01*
X189686772Y-78635328D01*
X189686772Y-79147828D01*
X189685719Y-79169269D01*
X189682569Y-79190504D01*
X189677353Y-79211328D01*
X189670121Y-79231540D01*
X189660942Y-79250946D01*
X189649906Y-79269359D01*
X189637118Y-79286602D01*
X189622702Y-79302508D01*
X189606796Y-79316924D01*
X189589553Y-79329712D01*
X189571140Y-79340748D01*
X189551734Y-79349927D01*
X189531522Y-79357159D01*
X189510698Y-79362375D01*
X189489463Y-79365525D01*
X189468022Y-79366578D01*
X189030522Y-79366578D01*
X189009081Y-79365525D01*
X188987846Y-79362375D01*
X188967022Y-79357159D01*
X188946810Y-79349927D01*
X188927404Y-79340748D01*
X188908991Y-79329712D01*
X188891748Y-79316924D01*
X188875842Y-79302508D01*
X188861426Y-79286602D01*
X188848638Y-79269359D01*
X188837602Y-79250946D01*
X188828423Y-79231540D01*
X188821191Y-79211328D01*
X188815975Y-79190504D01*
X188812825Y-79169269D01*
X188811772Y-79147828D01*
X188811772Y-78635328D01*
X188812825Y-78613887D01*
X188815975Y-78592652D01*
X188821191Y-78571828D01*
X188828423Y-78551616D01*
X188837602Y-78532210D01*
X188848638Y-78513797D01*
X188861426Y-78496554D01*
X188875842Y-78480648D01*
X188891748Y-78466232D01*
X188908991Y-78453444D01*
X188927404Y-78442408D01*
X188946810Y-78433229D01*
X188967022Y-78425997D01*
X188987846Y-78420781D01*
X189009081Y-78417631D01*
X189030522Y-78416578D01*
X189468022Y-78416578D01*
X189489463Y-78417631D01*
X189489463Y-78417631D01*
G37*
D21*
X189249272Y-78891578D03*
D14*
G36*
X187914463Y-78417631D02*
G01*
X187935698Y-78420781D01*
X187956522Y-78425997D01*
X187976734Y-78433229D01*
X187996140Y-78442408D01*
X188014553Y-78453444D01*
X188031796Y-78466232D01*
X188047702Y-78480648D01*
X188062118Y-78496554D01*
X188074906Y-78513797D01*
X188085942Y-78532210D01*
X188095121Y-78551616D01*
X188102353Y-78571828D01*
X188107569Y-78592652D01*
X188110719Y-78613887D01*
X188111772Y-78635328D01*
X188111772Y-79147828D01*
X188110719Y-79169269D01*
X188107569Y-79190504D01*
X188102353Y-79211328D01*
X188095121Y-79231540D01*
X188085942Y-79250946D01*
X188074906Y-79269359D01*
X188062118Y-79286602D01*
X188047702Y-79302508D01*
X188031796Y-79316924D01*
X188014553Y-79329712D01*
X187996140Y-79340748D01*
X187976734Y-79349927D01*
X187956522Y-79357159D01*
X187935698Y-79362375D01*
X187914463Y-79365525D01*
X187893022Y-79366578D01*
X187455522Y-79366578D01*
X187434081Y-79365525D01*
X187412846Y-79362375D01*
X187392022Y-79357159D01*
X187371810Y-79349927D01*
X187352404Y-79340748D01*
X187333991Y-79329712D01*
X187316748Y-79316924D01*
X187300842Y-79302508D01*
X187286426Y-79286602D01*
X187273638Y-79269359D01*
X187262602Y-79250946D01*
X187253423Y-79231540D01*
X187246191Y-79211328D01*
X187240975Y-79190504D01*
X187237825Y-79169269D01*
X187236772Y-79147828D01*
X187236772Y-78635328D01*
X187237825Y-78613887D01*
X187240975Y-78592652D01*
X187246191Y-78571828D01*
X187253423Y-78551616D01*
X187262602Y-78532210D01*
X187273638Y-78513797D01*
X187286426Y-78496554D01*
X187300842Y-78480648D01*
X187316748Y-78466232D01*
X187333991Y-78453444D01*
X187352404Y-78442408D01*
X187371810Y-78433229D01*
X187392022Y-78425997D01*
X187412846Y-78420781D01*
X187434081Y-78417631D01*
X187455522Y-78416578D01*
X187893022Y-78416578D01*
X187914463Y-78417631D01*
X187914463Y-78417631D01*
G37*
D21*
X187674272Y-78891578D03*
D14*
G36*
X176439464Y-72569631D02*
G01*
X176460699Y-72572781D01*
X176481523Y-72577997D01*
X176501735Y-72585229D01*
X176521141Y-72594408D01*
X176539554Y-72605444D01*
X176556797Y-72618232D01*
X176572703Y-72632648D01*
X176587119Y-72648554D01*
X176599907Y-72665797D01*
X176610943Y-72684210D01*
X176620122Y-72703616D01*
X176627354Y-72723828D01*
X176632570Y-72744652D01*
X176635720Y-72765887D01*
X176636773Y-72787328D01*
X176636773Y-73224828D01*
X176635720Y-73246269D01*
X176632570Y-73267504D01*
X176627354Y-73288328D01*
X176620122Y-73308540D01*
X176610943Y-73327946D01*
X176599907Y-73346359D01*
X176587119Y-73363602D01*
X176572703Y-73379508D01*
X176556797Y-73393924D01*
X176539554Y-73406712D01*
X176521141Y-73417748D01*
X176501735Y-73426927D01*
X176481523Y-73434159D01*
X176460699Y-73439375D01*
X176439464Y-73442525D01*
X176418023Y-73443578D01*
X175905523Y-73443578D01*
X175884082Y-73442525D01*
X175862847Y-73439375D01*
X175842023Y-73434159D01*
X175821811Y-73426927D01*
X175802405Y-73417748D01*
X175783992Y-73406712D01*
X175766749Y-73393924D01*
X175750843Y-73379508D01*
X175736427Y-73363602D01*
X175723639Y-73346359D01*
X175712603Y-73327946D01*
X175703424Y-73308540D01*
X175696192Y-73288328D01*
X175690976Y-73267504D01*
X175687826Y-73246269D01*
X175686773Y-73224828D01*
X175686773Y-72787328D01*
X175687826Y-72765887D01*
X175690976Y-72744652D01*
X175696192Y-72723828D01*
X175703424Y-72703616D01*
X175712603Y-72684210D01*
X175723639Y-72665797D01*
X175736427Y-72648554D01*
X175750843Y-72632648D01*
X175766749Y-72618232D01*
X175783992Y-72605444D01*
X175802405Y-72594408D01*
X175821811Y-72585229D01*
X175842023Y-72577997D01*
X175862847Y-72572781D01*
X175884082Y-72569631D01*
X175905523Y-72568578D01*
X176418023Y-72568578D01*
X176439464Y-72569631D01*
X176439464Y-72569631D01*
G37*
D21*
X176161773Y-73006078D03*
D14*
G36*
X176439464Y-74144631D02*
G01*
X176460699Y-74147781D01*
X176481523Y-74152997D01*
X176501735Y-74160229D01*
X176521141Y-74169408D01*
X176539554Y-74180444D01*
X176556797Y-74193232D01*
X176572703Y-74207648D01*
X176587119Y-74223554D01*
X176599907Y-74240797D01*
X176610943Y-74259210D01*
X176620122Y-74278616D01*
X176627354Y-74298828D01*
X176632570Y-74319652D01*
X176635720Y-74340887D01*
X176636773Y-74362328D01*
X176636773Y-74799828D01*
X176635720Y-74821269D01*
X176632570Y-74842504D01*
X176627354Y-74863328D01*
X176620122Y-74883540D01*
X176610943Y-74902946D01*
X176599907Y-74921359D01*
X176587119Y-74938602D01*
X176572703Y-74954508D01*
X176556797Y-74968924D01*
X176539554Y-74981712D01*
X176521141Y-74992748D01*
X176501735Y-75001927D01*
X176481523Y-75009159D01*
X176460699Y-75014375D01*
X176439464Y-75017525D01*
X176418023Y-75018578D01*
X175905523Y-75018578D01*
X175884082Y-75017525D01*
X175862847Y-75014375D01*
X175842023Y-75009159D01*
X175821811Y-75001927D01*
X175802405Y-74992748D01*
X175783992Y-74981712D01*
X175766749Y-74968924D01*
X175750843Y-74954508D01*
X175736427Y-74938602D01*
X175723639Y-74921359D01*
X175712603Y-74902946D01*
X175703424Y-74883540D01*
X175696192Y-74863328D01*
X175690976Y-74842504D01*
X175687826Y-74821269D01*
X175686773Y-74799828D01*
X175686773Y-74362328D01*
X175687826Y-74340887D01*
X175690976Y-74319652D01*
X175696192Y-74298828D01*
X175703424Y-74278616D01*
X175712603Y-74259210D01*
X175723639Y-74240797D01*
X175736427Y-74223554D01*
X175750843Y-74207648D01*
X175766749Y-74193232D01*
X175783992Y-74180444D01*
X175802405Y-74169408D01*
X175821811Y-74160229D01*
X175842023Y-74152997D01*
X175862847Y-74147781D01*
X175884082Y-74144631D01*
X175905523Y-74143578D01*
X176418023Y-74143578D01*
X176439464Y-74144631D01*
X176439464Y-74144631D01*
G37*
D21*
X176161773Y-74581078D03*
D14*
G36*
X184766914Y-75194752D02*
G01*
X184790575Y-75198262D01*
X184813779Y-75204074D01*
X184836301Y-75212132D01*
X184857925Y-75222360D01*
X184878442Y-75234657D01*
X184897655Y-75248907D01*
X184915379Y-75264971D01*
X184931443Y-75282695D01*
X184945693Y-75301908D01*
X184957990Y-75322425D01*
X184968218Y-75344049D01*
X184976276Y-75366571D01*
X184982088Y-75389775D01*
X184985598Y-75413436D01*
X184986772Y-75437328D01*
X184986772Y-76349828D01*
X184985598Y-76373720D01*
X184982088Y-76397381D01*
X184976276Y-76420585D01*
X184968218Y-76443107D01*
X184957990Y-76464731D01*
X184945693Y-76485248D01*
X184931443Y-76504461D01*
X184915379Y-76522185D01*
X184897655Y-76538249D01*
X184878442Y-76552499D01*
X184857925Y-76564796D01*
X184836301Y-76575024D01*
X184813779Y-76583082D01*
X184790575Y-76588894D01*
X184766914Y-76592404D01*
X184743022Y-76593578D01*
X184255522Y-76593578D01*
X184231630Y-76592404D01*
X184207969Y-76588894D01*
X184184765Y-76583082D01*
X184162243Y-76575024D01*
X184140619Y-76564796D01*
X184120102Y-76552499D01*
X184100889Y-76538249D01*
X184083165Y-76522185D01*
X184067101Y-76504461D01*
X184052851Y-76485248D01*
X184040554Y-76464731D01*
X184030326Y-76443107D01*
X184022268Y-76420585D01*
X184016456Y-76397381D01*
X184012946Y-76373720D01*
X184011772Y-76349828D01*
X184011772Y-75437328D01*
X184012946Y-75413436D01*
X184016456Y-75389775D01*
X184022268Y-75366571D01*
X184030326Y-75344049D01*
X184040554Y-75322425D01*
X184052851Y-75301908D01*
X184067101Y-75282695D01*
X184083165Y-75264971D01*
X184100889Y-75248907D01*
X184120102Y-75234657D01*
X184140619Y-75222360D01*
X184162243Y-75212132D01*
X184184765Y-75204074D01*
X184207969Y-75198262D01*
X184231630Y-75194752D01*
X184255522Y-75193578D01*
X184743022Y-75193578D01*
X184766914Y-75194752D01*
X184766914Y-75194752D01*
G37*
D22*
X184499272Y-75893578D03*
D14*
G36*
X182891914Y-75194752D02*
G01*
X182915575Y-75198262D01*
X182938779Y-75204074D01*
X182961301Y-75212132D01*
X182982925Y-75222360D01*
X183003442Y-75234657D01*
X183022655Y-75248907D01*
X183040379Y-75264971D01*
X183056443Y-75282695D01*
X183070693Y-75301908D01*
X183082990Y-75322425D01*
X183093218Y-75344049D01*
X183101276Y-75366571D01*
X183107088Y-75389775D01*
X183110598Y-75413436D01*
X183111772Y-75437328D01*
X183111772Y-76349828D01*
X183110598Y-76373720D01*
X183107088Y-76397381D01*
X183101276Y-76420585D01*
X183093218Y-76443107D01*
X183082990Y-76464731D01*
X183070693Y-76485248D01*
X183056443Y-76504461D01*
X183040379Y-76522185D01*
X183022655Y-76538249D01*
X183003442Y-76552499D01*
X182982925Y-76564796D01*
X182961301Y-76575024D01*
X182938779Y-76583082D01*
X182915575Y-76588894D01*
X182891914Y-76592404D01*
X182868022Y-76593578D01*
X182380522Y-76593578D01*
X182356630Y-76592404D01*
X182332969Y-76588894D01*
X182309765Y-76583082D01*
X182287243Y-76575024D01*
X182265619Y-76564796D01*
X182245102Y-76552499D01*
X182225889Y-76538249D01*
X182208165Y-76522185D01*
X182192101Y-76504461D01*
X182177851Y-76485248D01*
X182165554Y-76464731D01*
X182155326Y-76443107D01*
X182147268Y-76420585D01*
X182141456Y-76397381D01*
X182137946Y-76373720D01*
X182136772Y-76349828D01*
X182136772Y-75437328D01*
X182137946Y-75413436D01*
X182141456Y-75389775D01*
X182147268Y-75366571D01*
X182155326Y-75344049D01*
X182165554Y-75322425D01*
X182177851Y-75301908D01*
X182192101Y-75282695D01*
X182208165Y-75264971D01*
X182225889Y-75248907D01*
X182245102Y-75234657D01*
X182265619Y-75222360D01*
X182287243Y-75212132D01*
X182309765Y-75204074D01*
X182332969Y-75198262D01*
X182356630Y-75194752D01*
X182380522Y-75193578D01*
X182868022Y-75193578D01*
X182891914Y-75194752D01*
X182891914Y-75194752D01*
G37*
D22*
X182624272Y-75893578D03*
M02*
