G04 #@! TF.GenerationSoftware,KiCad,Pcbnew,(5.1.4)-1*
G04 #@! TF.CreationDate,2021-09-15T18:24:51-07:00*
G04 #@! TF.ProjectId,Panel,50616e65-6c2e-46b6-9963-61645f706362,rev?*
G04 #@! TF.SameCoordinates,Original*
G04 #@! TF.FileFunction,Legend,Bot*
G04 #@! TF.FilePolarity,Positive*
%FSLAX46Y46*%
G04 Gerber Fmt 4.6, Leading zero omitted, Abs format (unit mm)*
G04 Created by KiCad (PCBNEW (5.1.4)-1) date 2021-09-15 18:24:51*
%MOMM*%
%LPD*%
G04 APERTURE LIST*
%ADD10C,0.127000*%
%ADD11C,0.120000*%
%ADD12C,0.150000*%
G04 APERTURE END LIST*
D10*
X154095886Y-105145789D02*
X154095886Y-107345789D01*
X145155886Y-105145789D02*
X145155886Y-107345789D01*
X145155886Y-101675789D02*
X154095886Y-101675789D01*
D11*
X151125886Y-112945789D02*
X151125886Y-113945789D01*
X148125886Y-112445789D02*
X148625886Y-112445789D01*
X148125886Y-113945789D02*
X148125886Y-112445789D01*
X147135886Y-112683010D02*
X147135886Y-113008568D01*
X146115886Y-112683010D02*
X146115886Y-113008568D01*
X152115886Y-113008568D02*
X152115886Y-112683010D01*
X153135886Y-113008568D02*
X153135886Y-112683010D01*
X152065886Y-120730789D02*
X147185886Y-120730789D01*
X146015886Y-116260789D02*
X147065886Y-116260789D01*
X146015886Y-118760789D02*
X146015886Y-116260789D01*
X152185886Y-116260789D02*
X152185886Y-115270789D01*
X153235886Y-116260789D02*
X152185886Y-116260789D01*
X153235886Y-118760789D02*
X153235886Y-116260789D01*
X148120886Y-76695789D02*
X148120886Y-75695789D01*
X151120886Y-77195789D02*
X150620886Y-77195789D01*
X151120886Y-75695789D02*
X151120886Y-77195789D01*
X152110886Y-76958568D02*
X152110886Y-76633010D01*
X153130886Y-76958568D02*
X153130886Y-76633010D01*
X147130886Y-76633010D02*
X147130886Y-76958568D01*
X146110886Y-76633010D02*
X146110886Y-76958568D01*
X147180886Y-68910789D02*
X152060886Y-68910789D01*
X153230886Y-73380789D02*
X152180886Y-73380789D01*
X153230886Y-70880789D02*
X153230886Y-73380789D01*
X147060886Y-73380789D02*
X147060886Y-74370789D01*
X146010886Y-73380789D02*
X147060886Y-73380789D01*
X146010886Y-70880789D02*
X146010886Y-73380789D01*
D10*
X145150886Y-84495789D02*
X145150886Y-82295789D01*
X154090886Y-84495789D02*
X154090886Y-82295789D01*
X154090886Y-87965789D02*
X145150886Y-87965789D01*
D11*
X111674265Y-66659008D02*
X111674265Y-66333450D01*
X112694265Y-66659008D02*
X112694265Y-66333450D01*
X101224265Y-77981229D02*
X91344265Y-77981229D01*
X90174265Y-73511229D02*
X91224265Y-73511229D01*
X90174265Y-76011229D02*
X90174265Y-73511229D01*
X101344265Y-73511229D02*
X101344265Y-72521229D01*
X102394265Y-73511229D02*
X101344265Y-73511229D01*
X102394265Y-76011229D02*
X102394265Y-73511229D01*
D12*
X30864265Y-84313229D02*
X30864265Y-84694229D01*
X21974265Y-84313229D02*
X30864265Y-84313229D01*
X19434265Y-86853229D02*
X19434265Y-87234229D01*
X19815265Y-90663229D02*
X19434265Y-90663229D01*
X23320103Y-90663229D02*
X21593265Y-90663229D01*
X30864265Y-88758229D02*
X25784265Y-88758229D01*
X30864265Y-87742229D02*
X30864265Y-88758229D01*
X23320103Y-90682189D02*
G75*
G02X25784265Y-88758229I2464162J-616040D01*
G01*
X19434265Y-90282229D02*
X19434265Y-90663229D01*
X19434265Y-86853229D02*
G75*
G02X21974265Y-84313229I2540000J0D01*
G01*
D11*
X123634265Y-77496229D02*
X123634265Y-73496229D01*
X126934265Y-77496229D02*
X123634265Y-77496229D01*
X113344265Y-114211229D02*
X123224265Y-114211229D01*
X124394265Y-118681229D02*
X123344265Y-118681229D01*
X124394265Y-116181229D02*
X124394265Y-118681229D01*
X113224265Y-118681229D02*
X113224265Y-119671229D01*
X112174265Y-118681229D02*
X113224265Y-118681229D01*
X112174265Y-116181229D02*
X112174265Y-118681229D01*
X118455284Y-66194165D02*
X118455284Y-67398293D01*
X116635284Y-66194165D02*
X116635284Y-67398293D01*
X110074265Y-66659008D02*
X110074265Y-66333450D01*
X111094265Y-66659008D02*
X111094265Y-66333450D01*
D12*
X108784265Y-70621229D02*
X108784265Y-69346229D01*
X108209265Y-80971229D02*
X108209265Y-80296229D01*
X118559265Y-80971229D02*
X118559265Y-80296229D01*
X118559265Y-70621229D02*
X118559265Y-71296229D01*
X108209265Y-70621229D02*
X108209265Y-71296229D01*
X118559265Y-70621229D02*
X117884265Y-70621229D01*
X118559265Y-80971229D02*
X117884265Y-80971229D01*
X108209265Y-80971229D02*
X108884265Y-80971229D01*
X108209265Y-70621229D02*
X108784265Y-70621229D01*
X106864265Y-100911229D02*
X106864265Y-101292229D01*
X97974265Y-100911229D02*
X106864265Y-100911229D01*
X95434265Y-103451229D02*
X95434265Y-103832229D01*
X95815265Y-107261229D02*
X95434265Y-107261229D01*
X99320103Y-107261229D02*
X97593265Y-107261229D01*
X106864265Y-105356229D02*
X101784265Y-105356229D01*
X106864265Y-104340229D02*
X106864265Y-105356229D01*
X99320103Y-107280189D02*
G75*
G02X101784265Y-105356229I2464162J-616040D01*
G01*
X95434265Y-106880229D02*
X95434265Y-107261229D01*
X95434265Y-103451229D02*
G75*
G02X97974265Y-100911229I2540000J0D01*
G01*
X59364265Y-117661229D02*
X59364265Y-118042229D01*
X50474265Y-117661229D02*
X59364265Y-117661229D01*
X47934265Y-120201229D02*
X47934265Y-120582229D01*
X48315265Y-124011229D02*
X47934265Y-124011229D01*
X51820103Y-124011229D02*
X50093265Y-124011229D01*
X59364265Y-122106229D02*
X54284265Y-122106229D01*
X59364265Y-121090229D02*
X59364265Y-122106229D01*
X51820103Y-124030189D02*
G75*
G02X54284265Y-122106229I2464162J-616040D01*
G01*
X47934265Y-123630229D02*
X47934265Y-124011229D01*
X47934265Y-120201229D02*
G75*
G02X50474265Y-117661229I2540000J0D01*
G01*
X78364265Y-117661229D02*
X78364265Y-118042229D01*
X69474265Y-117661229D02*
X78364265Y-117661229D01*
X66934265Y-120201229D02*
X66934265Y-120582229D01*
X67315265Y-124011229D02*
X66934265Y-124011229D01*
X70820103Y-124011229D02*
X69093265Y-124011229D01*
X78364265Y-122106229D02*
X73284265Y-122106229D01*
X78364265Y-121090229D02*
X78364265Y-122106229D01*
X70820103Y-124030189D02*
G75*
G02X73284265Y-122106229I2464162J-616040D01*
G01*
X66934265Y-123630229D02*
X66934265Y-124011229D01*
X66934265Y-120201229D02*
G75*
G02X69474265Y-117661229I2540000J0D01*
G01*
X97364264Y-119911229D02*
X97364264Y-120292229D01*
X88474264Y-119911229D02*
X97364264Y-119911229D01*
X85934264Y-122451229D02*
X85934264Y-122832229D01*
X86315264Y-126261229D02*
X85934264Y-126261229D01*
X89820102Y-126261229D02*
X88093264Y-126261229D01*
X97364264Y-124356229D02*
X92284264Y-124356229D01*
X97364264Y-123340229D02*
X97364264Y-124356229D01*
X89820102Y-126280189D02*
G75*
G02X92284264Y-124356229I2464162J-616040D01*
G01*
X85934264Y-125880229D02*
X85934264Y-126261229D01*
X85934264Y-122451229D02*
G75*
G02X88474264Y-119911229I2540000J0D01*
G01*
X104284265Y-92796229D02*
X99084265Y-92796229D01*
X99084265Y-92796229D02*
X99084265Y-97996229D01*
X99084265Y-97996229D02*
X104284265Y-97996229D01*
X104284265Y-97996229D02*
X104284265Y-92796229D01*
X102684265Y-95396229D02*
G75*
G03X102684265Y-95396229I-1000000J0D01*
G01*
X68864265Y-97210229D02*
X68864265Y-97591229D01*
X59974265Y-97210229D02*
X68864265Y-97210229D01*
X57434265Y-99750229D02*
X57434265Y-100131229D01*
X57815265Y-103560229D02*
X57434265Y-103560229D01*
X61320103Y-103560229D02*
X59593265Y-103560229D01*
X68864265Y-101655229D02*
X63784265Y-101655229D01*
X68864265Y-100639229D02*
X68864265Y-101655229D01*
X61320103Y-103579189D02*
G75*
G02X63784265Y-101655229I2464162J-616040D01*
G01*
X57434265Y-103179229D02*
X57434265Y-103560229D01*
X57434265Y-99750229D02*
G75*
G02X59974265Y-97210229I2540000J0D01*
G01*
X109391354Y-131385416D02*
X109581854Y-131055461D01*
X117090320Y-135830416D02*
X109391354Y-131385416D01*
X120560024Y-134900712D02*
X120750524Y-134570756D01*
X122135069Y-131410655D02*
X122465024Y-131601155D01*
X119099790Y-129658236D02*
X120595275Y-130521655D01*
X111613854Y-127535934D02*
X116013263Y-130075934D01*
X111105854Y-128415815D02*
X111613854Y-127535934D01*
X119109270Y-129641817D02*
G75*
G02X116013263Y-130075934I-1826007J1765588D01*
G01*
X122274524Y-131931111D02*
X122465024Y-131601155D01*
X120560024Y-134900712D02*
G75*
G02X117090320Y-135830416I-2199704J1270000D01*
G01*
D11*
X123299265Y-69336229D02*
X123299265Y-64456229D01*
X127769265Y-63286229D02*
X127769265Y-64336229D01*
X125269265Y-63286229D02*
X127769265Y-63286229D01*
X127769265Y-69456229D02*
X128759265Y-69456229D01*
X127769265Y-70506229D02*
X127769265Y-69456229D01*
X125269265Y-70506229D02*
X127769265Y-70506229D01*
D12*
X68864265Y-78210229D02*
X68864265Y-78591229D01*
X59974265Y-78210229D02*
X68864265Y-78210229D01*
X57434265Y-80750229D02*
X57434265Y-81131229D01*
X57815265Y-84560229D02*
X57434265Y-84560229D01*
X61320103Y-84560229D02*
X59593265Y-84560229D01*
X68864265Y-82655229D02*
X63784265Y-82655229D01*
X68864265Y-81639229D02*
X68864265Y-82655229D01*
X61320103Y-84579189D02*
G75*
G02X63784265Y-82655229I2464162J-616040D01*
G01*
X57434265Y-84179229D02*
X57434265Y-84560229D01*
X57434265Y-80750229D02*
G75*
G02X59974265Y-78210229I2540000J0D01*
G01*
X115704265Y-109881229D02*
X115704265Y-109500229D01*
X124594265Y-109881229D02*
X115704265Y-109881229D01*
X127134265Y-107341229D02*
X127134265Y-106960229D01*
X126753265Y-103531229D02*
X127134265Y-103531229D01*
X123248427Y-103531229D02*
X124975265Y-103531229D01*
X115704265Y-105436229D02*
X120784265Y-105436229D01*
X115704265Y-106452229D02*
X115704265Y-105436229D01*
X123248427Y-103512269D02*
G75*
G02X120784265Y-105436229I-2464162J616040D01*
G01*
X127134265Y-103912229D02*
X127134265Y-103531229D01*
X127134265Y-107341229D02*
G75*
G02X124594265Y-109881229I-2540000J0D01*
G01*
X30864265Y-65313229D02*
X30864265Y-65694229D01*
X21974265Y-65313229D02*
X30864265Y-65313229D01*
X19434265Y-67853229D02*
X19434265Y-68234229D01*
X19815265Y-71663229D02*
X19434265Y-71663229D01*
X23320103Y-71663229D02*
X21593265Y-71663229D01*
X30864265Y-69758229D02*
X25784265Y-69758229D01*
X30864265Y-68742229D02*
X30864265Y-69758229D01*
X23320103Y-71682189D02*
G75*
G02X25784265Y-69758229I2464162J-616040D01*
G01*
X19434265Y-71282229D02*
X19434265Y-71663229D01*
X19434265Y-67853229D02*
G75*
G02X21974265Y-65313229I2540000J0D01*
G01*
X49864265Y-60513230D02*
X49864265Y-60894230D01*
X40974265Y-60513230D02*
X49864265Y-60513230D01*
X38434265Y-63053230D02*
X38434265Y-63434230D01*
X38815265Y-66863230D02*
X38434265Y-66863230D01*
X42320103Y-66863230D02*
X40593265Y-66863230D01*
X49864265Y-64958230D02*
X44784265Y-64958230D01*
X49864265Y-63942230D02*
X49864265Y-64958230D01*
X42320103Y-66882190D02*
G75*
G02X44784265Y-64958230I2464162J-616040D01*
G01*
X38434265Y-66482230D02*
X38434265Y-66863230D01*
X38434265Y-63053230D02*
G75*
G02X40974265Y-60513230I2540000J0D01*
G01*
X87864265Y-79514229D02*
X87864265Y-79895229D01*
X78974265Y-79514229D02*
X87864265Y-79514229D01*
X76434265Y-82054229D02*
X76434265Y-82435229D01*
X76815265Y-85864229D02*
X76434265Y-85864229D01*
X80320103Y-85864229D02*
X78593265Y-85864229D01*
X87864265Y-83959229D02*
X82784265Y-83959229D01*
X87864265Y-82943229D02*
X87864265Y-83959229D01*
X80320103Y-85883189D02*
G75*
G02X82784265Y-83959229I2464162J-616040D01*
G01*
X76434265Y-85483229D02*
X76434265Y-85864229D01*
X76434265Y-82054229D02*
G75*
G02X78974265Y-79514229I2540000J0D01*
G01*
X30864265Y-103313229D02*
X30864265Y-103694229D01*
X21974265Y-103313229D02*
X30864265Y-103313229D01*
X19434265Y-105853229D02*
X19434265Y-106234229D01*
X19815265Y-109663229D02*
X19434265Y-109663229D01*
X23320103Y-109663229D02*
X21593265Y-109663229D01*
X30864265Y-107758229D02*
X25784265Y-107758229D01*
X30864265Y-106742229D02*
X30864265Y-107758229D01*
X23320103Y-109682189D02*
G75*
G02X25784265Y-107758229I2464162J-616040D01*
G01*
X19434265Y-109282229D02*
X19434265Y-109663229D01*
X19434265Y-105853229D02*
G75*
G02X21974265Y-103313229I2540000J0D01*
G01*
X87864265Y-98514229D02*
X87864265Y-98895229D01*
X78974265Y-98514229D02*
X87864265Y-98514229D01*
X76434265Y-101054229D02*
X76434265Y-101435229D01*
X76815265Y-104864229D02*
X76434265Y-104864229D01*
X80320103Y-104864229D02*
X78593265Y-104864229D01*
X87864265Y-102959229D02*
X82784265Y-102959229D01*
X87864265Y-101943229D02*
X87864265Y-102959229D01*
X80320103Y-104883189D02*
G75*
G02X82784265Y-102959229I2464162J-616040D01*
G01*
X76434265Y-104483229D02*
X76434265Y-104864229D01*
X76434265Y-101054229D02*
G75*
G02X78974265Y-98514229I2540000J0D01*
G01*
X49864265Y-79513229D02*
X49864265Y-79894229D01*
X40974265Y-79513229D02*
X49864265Y-79513229D01*
X38434265Y-82053229D02*
X38434265Y-82434229D01*
X38815265Y-85863229D02*
X38434265Y-85863229D01*
X42320103Y-85863229D02*
X40593265Y-85863229D01*
X49864265Y-83958229D02*
X44784265Y-83958229D01*
X49864265Y-82942229D02*
X49864265Y-83958229D01*
X42320103Y-85882189D02*
G75*
G02X44784265Y-83958229I2464162J-616040D01*
G01*
X38434265Y-85482229D02*
X38434265Y-85863229D01*
X38434265Y-82053229D02*
G75*
G02X40974265Y-79513229I2540000J0D01*
G01*
X115704265Y-90881229D02*
X115704265Y-90500229D01*
X124594265Y-90881229D02*
X115704265Y-90881229D01*
X127134265Y-88341229D02*
X127134265Y-87960229D01*
X126753265Y-84531229D02*
X127134265Y-84531229D01*
X123248427Y-84531229D02*
X124975265Y-84531229D01*
X115704265Y-86436229D02*
X120784265Y-86436229D01*
X115704265Y-87452229D02*
X115704265Y-86436229D01*
X123248427Y-84512269D02*
G75*
G02X120784265Y-86436229I-2464162J616040D01*
G01*
X127134265Y-84912229D02*
X127134265Y-84531229D01*
X127134265Y-88341229D02*
G75*
G02X124594265Y-90881229I-2540000J0D01*
G01*
X87864265Y-60514229D02*
X87864265Y-60895229D01*
X78974265Y-60514229D02*
X87864265Y-60514229D01*
X76434265Y-63054229D02*
X76434265Y-63435229D01*
X76815265Y-66864229D02*
X76434265Y-66864229D01*
X80320103Y-66864229D02*
X78593265Y-66864229D01*
X87864265Y-64959229D02*
X82784265Y-64959229D01*
X87864265Y-63943229D02*
X87864265Y-64959229D01*
X80320103Y-66883189D02*
G75*
G02X82784265Y-64959229I2464162J-616040D01*
G01*
X76434265Y-66483229D02*
X76434265Y-66864229D01*
X76434265Y-63054229D02*
G75*
G02X78974265Y-60514229I2540000J0D01*
G01*
X68864265Y-59210228D02*
X68864265Y-59591228D01*
X59974265Y-59210228D02*
X68864265Y-59210228D01*
X57434265Y-61750228D02*
X57434265Y-62131228D01*
X57815265Y-65560228D02*
X57434265Y-65560228D01*
X61320103Y-65560228D02*
X59593265Y-65560228D01*
X68864265Y-63655228D02*
X63784265Y-63655228D01*
X68864265Y-62639228D02*
X68864265Y-63655228D01*
X61320103Y-65579188D02*
G75*
G02X63784265Y-63655228I2464162J-616040D01*
G01*
X57434265Y-65179228D02*
X57434265Y-65560228D01*
X57434265Y-61750228D02*
G75*
G02X59974265Y-59210228I2540000J0D01*
G01*
D11*
X90734265Y-116796229D02*
X86834265Y-116796229D01*
X90734265Y-118796229D02*
X86834265Y-118796229D01*
X90734265Y-116796229D02*
X90734265Y-118796229D01*
D12*
X49864265Y-98513229D02*
X49864265Y-98894229D01*
X40974265Y-98513229D02*
X49864265Y-98513229D01*
X38434265Y-101053229D02*
X38434265Y-101434229D01*
X38815265Y-104863229D02*
X38434265Y-104863229D01*
X42320103Y-104863229D02*
X40593265Y-104863229D01*
X49864265Y-102958229D02*
X44784265Y-102958229D01*
X49864265Y-101942229D02*
X49864265Y-102958229D01*
X42320103Y-104882189D02*
G75*
G02X44784265Y-102958229I2464162J-616040D01*
G01*
X38434265Y-104482229D02*
X38434265Y-104863229D01*
X38434265Y-101053229D02*
G75*
G02X40974265Y-98513229I2540000J0D01*
G01*
X106864265Y-62911230D02*
X106864265Y-63292230D01*
X97974265Y-62911230D02*
X106864265Y-62911230D01*
X95434265Y-65451230D02*
X95434265Y-65832230D01*
X95815265Y-69261230D02*
X95434265Y-69261230D01*
X99320103Y-69261230D02*
X97593265Y-69261230D01*
X106864265Y-67356230D02*
X101784265Y-67356230D01*
X106864265Y-66340230D02*
X106864265Y-67356230D01*
X99320103Y-69280190D02*
G75*
G02X101784265Y-67356230I2464162J-616040D01*
G01*
X95434265Y-68880230D02*
X95434265Y-69261230D01*
X95434265Y-65451230D02*
G75*
G02X97974265Y-62911230I2540000J0D01*
G01*
X106864265Y-81911229D02*
X106864265Y-82292229D01*
X97974265Y-81911229D02*
X106864265Y-81911229D01*
X95434265Y-84451229D02*
X95434265Y-84832229D01*
X95815265Y-88261229D02*
X95434265Y-88261229D01*
X99320103Y-88261229D02*
X97593265Y-88261229D01*
X106864265Y-86356229D02*
X101784265Y-86356229D01*
X106864265Y-85340229D02*
X106864265Y-86356229D01*
X99320103Y-88280189D02*
G75*
G02X101784265Y-86356229I2464162J-616040D01*
G01*
X95434265Y-87880229D02*
X95434265Y-88261229D01*
X95434265Y-84451229D02*
G75*
G02X97974265Y-81911229I2540000J0D01*
G01*
D11*
X52734265Y-90296229D02*
X56634265Y-90296229D01*
X52734265Y-88296229D02*
X56634265Y-88296229D01*
X52734265Y-90296229D02*
X52734265Y-88296229D01*
X38234265Y-113296229D02*
X34334265Y-113296229D01*
X38234265Y-115296229D02*
X34334265Y-115296229D01*
X38234265Y-113296229D02*
X38234265Y-115296229D01*
X71734265Y-109296229D02*
X75634265Y-109296229D01*
X71734265Y-107296229D02*
X75634265Y-107296229D01*
X71734265Y-109296229D02*
X71734265Y-107296229D01*
X118734265Y-95796229D02*
X122634265Y-95796229D01*
X118734265Y-93796229D02*
X122634265Y-93796229D01*
X118734265Y-95796229D02*
X118734265Y-93796229D01*
X90734265Y-109296229D02*
X94634265Y-109296229D01*
X90734265Y-107296229D02*
X94634265Y-107296229D01*
X90734265Y-109296229D02*
X90734265Y-107296229D01*
X71734265Y-90296229D02*
X75634265Y-90296229D01*
X71734265Y-88296229D02*
X75634265Y-88296229D01*
X71734265Y-90296229D02*
X71734265Y-88296229D01*
X52734265Y-109296229D02*
X56634265Y-109296229D01*
X52734265Y-107296229D02*
X56634265Y-107296229D01*
X52734265Y-109296229D02*
X52734265Y-107296229D01*
X90734265Y-71296229D02*
X94634265Y-71296229D01*
X90734265Y-69296229D02*
X94634265Y-69296229D01*
X90734265Y-71296229D02*
X90734265Y-69296229D01*
X118734264Y-93296229D02*
X122634264Y-93296229D01*
X118734264Y-91296229D02*
X122634264Y-91296229D01*
X118734264Y-93296229D02*
X118734264Y-91296229D01*
X33734265Y-112796229D02*
X37634265Y-112796229D01*
X33734265Y-110796229D02*
X37634265Y-110796229D01*
X33734265Y-112796229D02*
X33734265Y-110796229D01*
X52734265Y-71296229D02*
X56634265Y-71296229D01*
X52734265Y-69296229D02*
X56634265Y-69296229D01*
X52734265Y-71296229D02*
X52734265Y-69296229D01*
X90734265Y-90296229D02*
X94634265Y-90296229D01*
X90734265Y-88296229D02*
X94634265Y-88296229D01*
X90734265Y-90296229D02*
X90734265Y-88296229D01*
X71734265Y-114796229D02*
X67834265Y-114796229D01*
X71734265Y-116796229D02*
X67834265Y-116796229D01*
X71734265Y-114796229D02*
X71734265Y-116796229D01*
X71734264Y-71296229D02*
X75634264Y-71296229D01*
X71734264Y-69296229D02*
X75634264Y-69296229D01*
X71734264Y-71296229D02*
X71734264Y-69296229D01*
X33734265Y-93796229D02*
X37634265Y-93796229D01*
X33734265Y-91796229D02*
X37634265Y-91796229D01*
X33734265Y-93796229D02*
X33734265Y-91796229D01*
X116435708Y-122237254D02*
X119813207Y-124187254D01*
X117435708Y-120505204D02*
X120813207Y-122455204D01*
X116435708Y-122237254D02*
X117435708Y-120505204D01*
X33734265Y-74796229D02*
X37634265Y-74796229D01*
X33734265Y-72796229D02*
X37634265Y-72796229D01*
X33734265Y-74796229D02*
X33734265Y-72796229D01*
X52734264Y-114796229D02*
X48834264Y-114796229D01*
X52734264Y-116796229D02*
X48834264Y-116796229D01*
X52734264Y-114796229D02*
X52734264Y-116796229D01*
X38234265Y-75296229D02*
X34334265Y-75296229D01*
X38234265Y-77296229D02*
X34334265Y-77296229D01*
X38234265Y-75296229D02*
X38234265Y-77296229D01*
X106094265Y-72037651D02*
X106094265Y-72554807D01*
X104674265Y-72037651D02*
X104674265Y-72554807D01*
X38234265Y-94296229D02*
X34334265Y-94296229D01*
X38234265Y-96296229D02*
X34334265Y-96296229D01*
X38234265Y-94296229D02*
X38234265Y-96296229D01*
X125542843Y-73006229D02*
X125025687Y-73006229D01*
X125542843Y-71586229D02*
X125025687Y-71586229D01*
X125025687Y-77986229D02*
X125542843Y-77986229D01*
X125025687Y-79406229D02*
X125542843Y-79406229D01*
X120374265Y-80454807D02*
X120374265Y-79937651D01*
X121794265Y-80454807D02*
X121794265Y-79937651D01*
X114942843Y-67806229D02*
X114425687Y-67806229D01*
X114942843Y-66386229D02*
X114425687Y-66386229D01*
X104574264Y-79654807D02*
X104574264Y-79137651D01*
X105994264Y-79654807D02*
X105994264Y-79137651D01*
D12*
X229111773Y-80747578D02*
G75*
G02X231651773Y-78207578I2540000J0D01*
G01*
X229111773Y-84176578D02*
X229111773Y-84557578D01*
X232997611Y-84576538D02*
G75*
G02X235461773Y-82652578I2464162J-616040D01*
G01*
X240541773Y-81636578D02*
X240541773Y-82652578D01*
X240541773Y-82652578D02*
X235461773Y-82652578D01*
X232997611Y-84557578D02*
X231270773Y-84557578D01*
X229492773Y-84557578D02*
X229111773Y-84557578D01*
X229111773Y-80747578D02*
X229111773Y-81128578D01*
X231651773Y-78207578D02*
X240541773Y-78207578D01*
X240541773Y-78207578D02*
X240541773Y-78588578D01*
X191111772Y-65448578D02*
G75*
G02X193651772Y-62908578I2540000J0D01*
G01*
X191111772Y-68877578D02*
X191111772Y-69258578D01*
X194997610Y-69277538D02*
G75*
G02X197461772Y-67353578I2464162J-616040D01*
G01*
X202541772Y-66337578D02*
X202541772Y-67353578D01*
X202541772Y-67353578D02*
X197461772Y-67353578D01*
X194997610Y-69258578D02*
X193270772Y-69258578D01*
X191492772Y-69258578D02*
X191111772Y-69258578D01*
X191111772Y-65448578D02*
X191111772Y-65829578D01*
X193651772Y-62908578D02*
X202541772Y-62908578D01*
X202541772Y-62908578D02*
X202541772Y-63289578D01*
X210111772Y-63051577D02*
G75*
G02X212651772Y-60511577I2540000J0D01*
G01*
X210111772Y-66480577D02*
X210111772Y-66861577D01*
X213997610Y-66880537D02*
G75*
G02X216461772Y-64956577I2464162J-616040D01*
G01*
X221541772Y-63940577D02*
X221541772Y-64956577D01*
X221541772Y-64956577D02*
X216461772Y-64956577D01*
X213997610Y-66861577D02*
X212270772Y-66861577D01*
X210492772Y-66861577D02*
X210111772Y-66861577D01*
X210111772Y-63051577D02*
X210111772Y-63432577D01*
X212651772Y-60511577D02*
X221541772Y-60511577D01*
X221541772Y-60511577D02*
X221541772Y-60892577D01*
X189684534Y-128548060D02*
G75*
G02X188754830Y-132017764I-2199704J-1270000D01*
G01*
X187970034Y-125578459D02*
X187779534Y-125248503D01*
X184404820Y-127175003D02*
G75*
G02X183232773Y-130073282I-2442047J-698574D01*
G01*
X179341364Y-133493163D02*
X178833364Y-132613282D01*
X178833364Y-132613282D02*
X183232773Y-130073282D01*
X184414300Y-127191422D02*
X185909785Y-126328003D01*
X187449579Y-125439003D02*
X187779534Y-125248503D01*
X189684534Y-128548060D02*
X189494034Y-128218104D01*
X188754830Y-132017764D02*
X181055864Y-136462764D01*
X181055864Y-136462764D02*
X180865364Y-136132809D01*
X267111772Y-67850578D02*
G75*
G02X269651772Y-65310578I2540000J0D01*
G01*
X267111772Y-71279578D02*
X267111772Y-71660578D01*
X270997610Y-71679538D02*
G75*
G02X273461772Y-69755578I2464162J-616040D01*
G01*
X278541772Y-68739578D02*
X278541772Y-69755578D01*
X278541772Y-69755578D02*
X273461772Y-69755578D01*
X270997610Y-71660578D02*
X269270772Y-71660578D01*
X267492772Y-71660578D02*
X267111772Y-71660578D01*
X267111772Y-67850578D02*
X267111772Y-68231578D01*
X269651772Y-65310578D02*
X278541772Y-65310578D01*
X278541772Y-65310578D02*
X278541772Y-65691578D01*
X248111772Y-63050578D02*
G75*
G02X250651772Y-60510578I2540000J0D01*
G01*
X248111772Y-66479578D02*
X248111772Y-66860578D01*
X251997610Y-66879538D02*
G75*
G02X254461772Y-64955578I2464162J-616040D01*
G01*
X259541772Y-63939578D02*
X259541772Y-64955578D01*
X259541772Y-64955578D02*
X254461772Y-64955578D01*
X251997610Y-66860578D02*
X250270772Y-66860578D01*
X248492772Y-66860578D02*
X248111772Y-66860578D01*
X248111772Y-63050578D02*
X248111772Y-63431578D01*
X250651772Y-60510578D02*
X259541772Y-60510578D01*
X259541772Y-60510578D02*
X259541772Y-60891578D01*
X191111772Y-103448577D02*
G75*
G02X193651772Y-100908577I2540000J0D01*
G01*
X191111772Y-106877577D02*
X191111772Y-107258577D01*
X194997610Y-107277537D02*
G75*
G02X197461772Y-105353577I2464162J-616040D01*
G01*
X202541772Y-104337577D02*
X202541772Y-105353577D01*
X202541772Y-105353577D02*
X197461772Y-105353577D01*
X194997610Y-107258577D02*
X193270772Y-107258577D01*
X191492772Y-107258577D02*
X191111772Y-107258577D01*
X191111772Y-103448577D02*
X191111772Y-103829577D01*
X193651772Y-100908577D02*
X202541772Y-100908577D01*
X202541772Y-100908577D02*
X202541772Y-101289577D01*
X210111772Y-101051577D02*
G75*
G02X212651772Y-98511577I2540000J0D01*
G01*
X210111772Y-104480577D02*
X210111772Y-104861577D01*
X213997610Y-104880537D02*
G75*
G02X216461772Y-102956577I2464162J-616040D01*
G01*
X221541772Y-101940577D02*
X221541772Y-102956577D01*
X221541772Y-102956577D02*
X216461772Y-102956577D01*
X213997610Y-104861577D02*
X212270772Y-104861577D01*
X210492772Y-104861577D02*
X210111772Y-104861577D01*
X210111772Y-101051577D02*
X210111772Y-101432577D01*
X212651772Y-98511577D02*
X221541772Y-98511577D01*
X221541772Y-98511577D02*
X221541772Y-98892577D01*
X248111772Y-82050578D02*
G75*
G02X250651772Y-79510578I2540000J0D01*
G01*
X248111772Y-85479578D02*
X248111772Y-85860578D01*
X251997610Y-85879538D02*
G75*
G02X254461772Y-83955578I2464162J-616040D01*
G01*
X259541772Y-82939578D02*
X259541772Y-83955578D01*
X259541772Y-83955578D02*
X254461772Y-83955578D01*
X251997610Y-85860578D02*
X250270772Y-85860578D01*
X248492772Y-85860578D02*
X248111772Y-85860578D01*
X248111772Y-82050578D02*
X248111772Y-82431578D01*
X250651772Y-79510578D02*
X259541772Y-79510578D01*
X259541772Y-79510578D02*
X259541772Y-79891578D01*
X210111772Y-82051578D02*
G75*
G02X212651772Y-79511578I2540000J0D01*
G01*
X210111772Y-85480578D02*
X210111772Y-85861578D01*
X213997610Y-85880538D02*
G75*
G02X216461772Y-83956578I2464162J-616040D01*
G01*
X221541772Y-82940578D02*
X221541772Y-83956578D01*
X221541772Y-83956578D02*
X216461772Y-83956578D01*
X213997610Y-85861578D02*
X212270772Y-85861578D01*
X210492772Y-85861578D02*
X210111772Y-85861578D01*
X210111772Y-82051578D02*
X210111772Y-82432578D01*
X212651772Y-79511578D02*
X221541772Y-79511578D01*
X221541772Y-79511578D02*
X221541772Y-79892578D01*
X229111772Y-61747577D02*
G75*
G02X231651772Y-59207577I2540000J0D01*
G01*
X229111772Y-65176577D02*
X229111772Y-65557577D01*
X232997610Y-65576537D02*
G75*
G02X235461772Y-63652577I2464162J-616040D01*
G01*
X240541772Y-62636577D02*
X240541772Y-63652577D01*
X240541772Y-63652577D02*
X235461772Y-63652577D01*
X232997610Y-65557577D02*
X231270772Y-65557577D01*
X229492772Y-65557577D02*
X229111772Y-65557577D01*
X229111772Y-61747577D02*
X229111772Y-62128577D01*
X231651772Y-59207577D02*
X240541772Y-59207577D01*
X240541772Y-59207577D02*
X240541772Y-59588577D01*
X191111772Y-84448578D02*
G75*
G02X193651772Y-81908578I2540000J0D01*
G01*
X191111772Y-87877578D02*
X191111772Y-88258578D01*
X194997610Y-88277538D02*
G75*
G02X197461772Y-86353578I2464162J-616040D01*
G01*
X202541772Y-85337578D02*
X202541772Y-86353578D01*
X202541772Y-86353578D02*
X197461772Y-86353578D01*
X194997610Y-88258578D02*
X193270772Y-88258578D01*
X191492772Y-88258578D02*
X191111772Y-88258578D01*
X191111772Y-84448578D02*
X191111772Y-84829578D01*
X193651772Y-81908578D02*
X202541772Y-81908578D01*
X202541772Y-81908578D02*
X202541772Y-82289578D01*
X184811772Y-107338577D02*
G75*
G02X182271772Y-109878577I-2540000J0D01*
G01*
X184811772Y-103909577D02*
X184811772Y-103528577D01*
X180925934Y-103509617D02*
G75*
G02X178461772Y-105433577I-2464162J616040D01*
G01*
X173381772Y-106449577D02*
X173381772Y-105433577D01*
X173381772Y-105433577D02*
X178461772Y-105433577D01*
X180925934Y-103528577D02*
X182652772Y-103528577D01*
X184430772Y-103528577D02*
X184811772Y-103528577D01*
X184811772Y-107338577D02*
X184811772Y-106957577D01*
X182271772Y-109878577D02*
X173381772Y-109878577D01*
X173381772Y-109878577D02*
X173381772Y-109497577D01*
X184811773Y-88338578D02*
G75*
G02X182271773Y-90878578I-2540000J0D01*
G01*
X184811773Y-84909578D02*
X184811773Y-84528578D01*
X180925935Y-84509618D02*
G75*
G02X178461773Y-86433578I-2464162J616040D01*
G01*
X173381773Y-87449578D02*
X173381773Y-86433578D01*
X173381773Y-86433578D02*
X178461773Y-86433578D01*
X180925935Y-84528578D02*
X182652773Y-84528578D01*
X184430773Y-84528578D02*
X184811773Y-84528578D01*
X184811773Y-88338578D02*
X184811773Y-87957578D01*
X182271773Y-90878578D02*
X173381773Y-90878578D01*
X173381773Y-90878578D02*
X173381773Y-90497578D01*
X238611772Y-120198578D02*
G75*
G02X241151772Y-117658578I2540000J0D01*
G01*
X238611772Y-123627578D02*
X238611772Y-124008578D01*
X242497610Y-124027538D02*
G75*
G02X244961772Y-122103578I2464162J-616040D01*
G01*
X250041772Y-121087578D02*
X250041772Y-122103578D01*
X250041772Y-122103578D02*
X244961772Y-122103578D01*
X242497610Y-124008578D02*
X240770772Y-124008578D01*
X238992772Y-124008578D02*
X238611772Y-124008578D01*
X238611772Y-120198578D02*
X238611772Y-120579578D01*
X241151772Y-117658578D02*
X250041772Y-117658578D01*
X250041772Y-117658578D02*
X250041772Y-118039578D01*
X219611772Y-120198578D02*
G75*
G02X222151772Y-117658578I2540000J0D01*
G01*
X219611772Y-123627578D02*
X219611772Y-124008578D01*
X223497610Y-124027538D02*
G75*
G02X225961772Y-122103578I2464162J-616040D01*
G01*
X231041772Y-121087578D02*
X231041772Y-122103578D01*
X231041772Y-122103578D02*
X225961772Y-122103578D01*
X223497610Y-124008578D02*
X221770772Y-124008578D01*
X219992772Y-124008578D02*
X219611772Y-124008578D01*
X219611772Y-120198578D02*
X219611772Y-120579578D01*
X222151772Y-117658578D02*
X231041772Y-117658578D01*
X231041772Y-117658578D02*
X231041772Y-118039578D01*
X200611772Y-122448577D02*
G75*
G02X203151772Y-119908577I2540000J0D01*
G01*
X200611772Y-125877577D02*
X200611772Y-126258577D01*
X204497610Y-126277537D02*
G75*
G02X206961772Y-124353577I2464162J-616040D01*
G01*
X212041772Y-123337577D02*
X212041772Y-124353577D01*
X212041772Y-124353577D02*
X206961772Y-124353577D01*
X204497610Y-126258577D02*
X202770772Y-126258577D01*
X200992772Y-126258577D02*
X200611772Y-126258577D01*
X200611772Y-122448577D02*
X200611772Y-122829577D01*
X203151772Y-119908577D02*
X212041772Y-119908577D01*
X212041772Y-119908577D02*
X212041772Y-120289577D01*
X248111772Y-101050577D02*
G75*
G02X250651772Y-98510577I2540000J0D01*
G01*
X248111772Y-104479577D02*
X248111772Y-104860577D01*
X251997610Y-104879537D02*
G75*
G02X254461772Y-102955577I2464162J-616040D01*
G01*
X259541772Y-101939577D02*
X259541772Y-102955577D01*
X259541772Y-102955577D02*
X254461772Y-102955577D01*
X251997610Y-104860577D02*
X250270772Y-104860577D01*
X248492772Y-104860577D02*
X248111772Y-104860577D01*
X248111772Y-101050577D02*
X248111772Y-101431577D01*
X250651772Y-98510577D02*
X259541772Y-98510577D01*
X259541772Y-98510577D02*
X259541772Y-98891577D01*
X229111772Y-99747577D02*
G75*
G02X231651772Y-97207577I2540000J0D01*
G01*
X229111772Y-103176577D02*
X229111772Y-103557577D01*
X232997610Y-103576537D02*
G75*
G02X235461772Y-101652577I2464162J-616040D01*
G01*
X240541772Y-100636577D02*
X240541772Y-101652577D01*
X240541772Y-101652577D02*
X235461772Y-101652577D01*
X232997610Y-103557577D02*
X231270772Y-103557577D01*
X229492772Y-103557577D02*
X229111772Y-103557577D01*
X229111772Y-99747577D02*
X229111772Y-100128577D01*
X231651772Y-97207577D02*
X240541772Y-97207577D01*
X240541772Y-97207577D02*
X240541772Y-97588577D01*
X267111772Y-86850578D02*
G75*
G02X269651772Y-84310578I2540000J0D01*
G01*
X267111772Y-90279578D02*
X267111772Y-90660578D01*
X270997610Y-90679538D02*
G75*
G02X273461772Y-88755578I2464162J-616040D01*
G01*
X278541772Y-87739578D02*
X278541772Y-88755578D01*
X278541772Y-88755578D02*
X273461772Y-88755578D01*
X270997610Y-90660578D02*
X269270772Y-90660578D01*
X267492772Y-90660578D02*
X267111772Y-90660578D01*
X267111772Y-86850578D02*
X267111772Y-87231578D01*
X269651772Y-84310578D02*
X278541772Y-84310578D01*
X278541772Y-84310578D02*
X278541772Y-84691578D01*
X267111772Y-105850577D02*
G75*
G02X269651772Y-103310577I2540000J0D01*
G01*
X267111772Y-109279577D02*
X267111772Y-109660577D01*
X270997610Y-109679537D02*
G75*
G02X273461772Y-107755577I2464162J-616040D01*
G01*
X278541772Y-106739577D02*
X278541772Y-107755577D01*
X278541772Y-107755577D02*
X273461772Y-107755577D01*
X270997610Y-109660577D02*
X269270772Y-109660577D01*
X267492772Y-109660577D02*
X267111772Y-109660577D01*
X267111772Y-105850577D02*
X267111772Y-106231577D01*
X269651772Y-103310577D02*
X278541772Y-103310577D01*
X278541772Y-103310577D02*
X278541772Y-103691577D01*
D11*
X181810330Y-120502553D02*
X178432831Y-122452553D01*
X182810330Y-122234603D02*
X179432831Y-124184603D01*
X181810330Y-120502553D02*
X182810330Y-122234603D01*
X261011773Y-115293578D02*
X264911773Y-115293578D01*
X261011773Y-113293578D02*
X264911773Y-113293578D01*
X261011773Y-115293578D02*
X261011773Y-113293578D01*
X261011773Y-96293578D02*
X264911773Y-96293578D01*
X261011773Y-94293578D02*
X264911773Y-94293578D01*
X261011773Y-96293578D02*
X261011773Y-94293578D01*
X261011773Y-77293578D02*
X264911773Y-77293578D01*
X261011773Y-75293578D02*
X264911773Y-75293578D01*
X261011773Y-77293578D02*
X261011773Y-75293578D01*
X265511773Y-110793578D02*
X261611773Y-110793578D01*
X265511773Y-112793578D02*
X261611773Y-112793578D01*
X265511773Y-110793578D02*
X265511773Y-112793578D01*
X265511773Y-91793578D02*
X261611773Y-91793578D01*
X265511773Y-93793578D02*
X261611773Y-93793578D01*
X265511773Y-91793578D02*
X265511773Y-93793578D01*
X265511773Y-72793578D02*
X261611773Y-72793578D01*
X265511773Y-74793578D02*
X261611773Y-74793578D01*
X265511773Y-72793578D02*
X265511773Y-74793578D01*
X246511773Y-108293578D02*
X242611773Y-108293578D01*
X246511773Y-110293578D02*
X242611773Y-110293578D01*
X246511773Y-108293578D02*
X246511773Y-110293578D01*
X246511773Y-89293578D02*
X242611773Y-89293578D01*
X246511773Y-91293578D02*
X242611773Y-91293578D01*
X246511773Y-89293578D02*
X246511773Y-91293578D01*
X246511773Y-69793578D02*
X242611773Y-69793578D01*
X246511773Y-71793578D02*
X242611773Y-71793578D01*
X246511773Y-69793578D02*
X246511773Y-71793578D01*
X246511773Y-116793578D02*
X250411773Y-116793578D01*
X246511773Y-114793578D02*
X250411773Y-114793578D01*
X246511773Y-116793578D02*
X246511773Y-114793578D01*
X227511773Y-108293578D02*
X223611773Y-108293578D01*
X227511773Y-110293578D02*
X223611773Y-110293578D01*
X227511773Y-108293578D02*
X227511773Y-110293578D01*
X227511773Y-89293578D02*
X223611773Y-89293578D01*
X227511773Y-91293578D02*
X223611773Y-91293578D01*
X227511773Y-89293578D02*
X227511773Y-91293578D01*
X227511773Y-69793578D02*
X223611773Y-69793578D01*
X227511773Y-71793578D02*
X223611773Y-71793578D01*
X227511773Y-69793578D02*
X227511773Y-71793578D01*
X227511773Y-116793578D02*
X231411773Y-116793578D01*
X227511773Y-114793578D02*
X231411773Y-114793578D01*
X227511773Y-116793578D02*
X227511773Y-114793578D01*
X208511773Y-108293578D02*
X204611773Y-108293578D01*
X208511773Y-110293578D02*
X204611773Y-110293578D01*
X208511773Y-108293578D02*
X208511773Y-110293578D01*
X208511773Y-89293578D02*
X204611773Y-89293578D01*
X208511773Y-91293578D02*
X204611773Y-91293578D01*
X208511773Y-89293578D02*
X208511773Y-91293578D01*
X208511773Y-69793578D02*
X204611773Y-69793578D01*
X208511773Y-71793578D02*
X204611773Y-71793578D01*
X208511773Y-69793578D02*
X208511773Y-71793578D01*
X208511773Y-118793578D02*
X212411773Y-118793578D01*
X208511773Y-116793578D02*
X212411773Y-116793578D01*
X208511773Y-118793578D02*
X208511773Y-116793578D01*
X180511773Y-93793578D02*
X176611773Y-93793578D01*
X180511773Y-95793578D02*
X176611773Y-95793578D01*
X180511773Y-93793578D02*
X180511773Y-95793578D01*
X180511773Y-91293578D02*
X176611773Y-91293578D01*
X180511773Y-93293578D02*
X176611773Y-93293578D01*
X180511773Y-91293578D02*
X180511773Y-93293578D01*
X185461773Y-67443578D02*
X181461773Y-67443578D01*
X185461773Y-64143578D02*
X185461773Y-67443578D01*
D12*
X180690399Y-80497821D02*
X179415399Y-80497821D01*
X191040399Y-81072821D02*
X190365399Y-81072821D01*
X191040399Y-70722821D02*
X190365399Y-70722821D01*
X180690399Y-70722821D02*
X181365399Y-70722821D01*
X180690399Y-81072821D02*
X181365399Y-81072821D01*
X180690399Y-70722821D02*
X180690399Y-71397821D01*
X191040399Y-70722821D02*
X191040399Y-71397821D01*
X191040399Y-81072821D02*
X191040399Y-80397821D01*
X180690399Y-81072821D02*
X180690399Y-80497821D01*
X194961773Y-97993578D02*
X200161773Y-97993578D01*
X200161773Y-97993578D02*
X200161773Y-92793578D01*
X200161773Y-92793578D02*
X194961773Y-92793578D01*
X194961773Y-92793578D02*
X194961773Y-97993578D01*
X198561773Y-95393578D02*
G75*
G03X198561773Y-95393578I-1000000J0D01*
G01*
D11*
X175928178Y-77607821D02*
X175602620Y-77607821D01*
X175928178Y-76587821D02*
X175602620Y-76587821D01*
X175928178Y-79207821D02*
X175602620Y-79207821D01*
X175928178Y-78187821D02*
X175602620Y-78187821D01*
X207901773Y-77978578D02*
X198021773Y-77978578D01*
X196851773Y-73508578D02*
X197901773Y-73508578D01*
X196851773Y-76008578D02*
X196851773Y-73508578D01*
X208021773Y-73508578D02*
X208021773Y-72518578D01*
X209071773Y-73508578D02*
X208021773Y-73508578D01*
X209071773Y-76008578D02*
X209071773Y-73508578D01*
X176021772Y-114206578D02*
X185901772Y-114206578D01*
X187071772Y-118676578D02*
X186021772Y-118676578D01*
X187071772Y-116176578D02*
X187071772Y-118676578D01*
X175901772Y-118676578D02*
X175901772Y-119666578D01*
X174851772Y-118676578D02*
X175901772Y-118676578D01*
X174851772Y-116176578D02*
X174851772Y-118676578D01*
X175946773Y-64453578D02*
X175946773Y-69333578D01*
X171476773Y-70503578D02*
X171476773Y-69453578D01*
X173976773Y-70503578D02*
X171476773Y-70503578D01*
X171476773Y-64333578D02*
X170486773Y-64333578D01*
X171476773Y-63283578D02*
X171476773Y-64333578D01*
X173976773Y-63283578D02*
X171476773Y-63283578D01*
X176071773Y-73191514D02*
X176071773Y-74395642D01*
X174251773Y-73191514D02*
X174251773Y-74395642D01*
X177971773Y-74135000D02*
X177971773Y-74652156D01*
X176551773Y-74135000D02*
X176551773Y-74652156D01*
X193651773Y-71952156D02*
X193651773Y-71435000D01*
X195071773Y-71952156D02*
X195071773Y-71435000D01*
X180971773Y-65533000D02*
X180971773Y-66050156D01*
X179551773Y-65533000D02*
X179551773Y-66050156D01*
X185951773Y-66052156D02*
X185951773Y-65535000D01*
X187371773Y-66052156D02*
X187371773Y-65535000D01*
X177120351Y-81103578D02*
X176603195Y-81103578D01*
X177120351Y-79683578D02*
X176603195Y-79683578D01*
X195171773Y-79935000D02*
X195171773Y-80452156D01*
X193751773Y-79935000D02*
X193751773Y-80452156D01*
M02*
