0
SECTION
2
HEADER
9
$INSUNITS
70
4
9
$ACADVER
1
AC1014
9
$HANDSEED
5
FFFF
0
ENDSEC
0
SECTION
2
TABLES
0
TABLE
2
VPORT
5
8
100
AcDbSymbolTable
0
ENDTAB
0
TABLE
2
LTYPE
5
5
100
AcDbSymbolTable
0
LTYPE
5
14
100
AcDbSymbolTableRecord
100
AcDbLinetypeTableRecord
2
BYBLOCK
70
0
0
LTYPE
5
15
100
AcDbSymbolTableRecord
100
AcDbLinetypeTableRecord
2
BYLAYER
70
0
0
ENDTAB
0
TABLE
2
LAYER
5
2
100
AcDbSymbolTable
70
2
0
LAYER
5
50
100
AcDbSymbolTableRecord
100
AcDbLayerTableRecord
2
0
70
0
6
CONTINUOUS
0
ENDTAB
0
TABLE
2
STYLE
5
3
100
AcDbSymbolTable
70
1
0
STYLE
5
11
100
AcDbSymbolTableRecord
100
AcDbTextStyleTableRecord
2
STANDARD
70
0
0
ENDTAB
0
TABLE
2
VIEW
5
6
100
AcDbSymbolTable
70
0
0
ENDTAB
0
TABLE
2
UCS
5
7
100
AcDbSymbolTable
70
0
0
ENDTAB
0
TABLE
2
APPID
5
9
100
AcDbSymbolTable
70
2
0
APPID
5
12
100
AcDbSymbolTableRecord
100
AcDbRegAppTableRecord
2
ACAD
70
0
0
ENDTAB
0
TABLE
2
DIMSTYLE
5
A
100
AcDbSymbolTable
70
1
0
ENDTAB
0
TABLE
2
BLOCK_RECORD
5
1
100
AcDbSymbolTable
70
1
0
BLOCK_RECORD
5
1F
100
AcDbSymbolTableRecord
100
AcDbBlockTableRecord
2
*MODEL_SPACE
0
BLOCK_RECORD
5
1B
100
AcDbSymbolTableRecord
100
AcDbBlockTableRecord
2
*PAPER_SPACE
0
ENDTAB
0
ENDSEC
0
SECTION
2
BLOCKS
0
BLOCK
5
20
100
AcDbEntity
100
AcDbBlockBegin
2
*MODEL_SPACE
0
ENDBLK
5
21
100
AcDbEntity
100
AcDbBlockEnd
0
BLOCK
5
1C
100
AcDbEntity
100
AcDbBlockBegin
2
*PAPER_SPACE
0
ENDBLK
5
1D
100
AcDbEntity
100
AcDbBlockEnd
0
ENDSEC
0
SECTION
2
ENTITIES
0
ARC
5
100
100
AcDbEntity
8
0
100
AcDbCircle
10
161.52538298235777
20
-150.60100028312206
30
0
40
0.99999999999999645
210
-0
220
0
230
1
100
AcDbArc
50
270
51
339.60440416919687
0
ARC
5
101
100
AcDbEntity
8
0
100
AcDbCircle
10
163.40000054335516
20
-151.29800028312204
30
0
40
0.99999999999997868
210
0
220
-0
230
1
100
AcDbArc
50
89.99999999999838
51
159.60440416919784
0
LINE
5
102
100
AcDbEntity
8
0
100
AcDbLine
10
163.40000054335519
20
-150.29800028312206
30
0
11
180.40000031292439
21
-150.29800028312206
31
0
0
ARC
5
103
100
AcDbEntity
8
0
100
AcDbCircle
10
180.40000031292439
20
-149.29800028312206
30
0
40
0.99999999999997868
210
0
220
0
230
1
100
AcDbArc
50
-90
51
0
0
LINE
5
104
100
AcDbEntity
8
0
100
AcDbLine
10
181.40000031292442
20
-149.29800028312206
30
0
11
181.40000031292442
21
-146.49800028312205
31
0
0
ARC
5
105
100
AcDbEntity
8
0
100
AcDbCircle
10
182.40000031292448
20
-146.49800028312211
30
0
40
1.000000000000032
210
0
220
0
230
1
100
AcDbArc
50
90.000000000003254
51
180
0
LINE
5
106
100
AcDbEntity
8
0
100
AcDbLine
10
182.40000031292442
20
-145.49800028312208
30
0
11
187.40000031292448
21
-145.49800028312208
31
0
0
ARC
5
107
100
AcDbEntity
8
0
100
AcDbCircle
10
187.40000031292448
20
-146.49800028312208
30
0
40
1.0000000000000142
210
0
220
0
230
1
100
AcDbArc
50
0
51
90
0
LINE
5
108
100
AcDbEntity
8
0
100
AcDbLine
10
188.40000031292448
20
-146.49800028312208
30
0
11
188.40000031292442
21
-149.09800028312208
31
0
0
ARC
5
109
100
AcDbEntity
8
0
100
AcDbCircle
10
190.90000031292442
20
-149.09800028312208
30
0
40
2.5
210
0
220
0
230
1
100
AcDbArc
50
-180
51
0
0
LINE
5
110
100
AcDbEntity
8
0
100
AcDbLine
10
193.40000031292442
20
-149.09800028312208
30
0
11
193.40000031292442
21
-146.49800028312205
31
0
0
ARC
5
111
100
AcDbEntity
8
0
100
AcDbCircle
10
194.40000031292439
20
-146.49800028312205
30
0
40
0.99999999999999645
210
0
220
-0
230
1
100
AcDbArc
50
89.99999999999838
51
180
0
LINE
5
112
100
AcDbEntity
8
0
100
AcDbLine
10
194.40000031292442
20
-145.49800028312208
30
0
11
199.8000003129244
21
-145.49800028312208
31
0
0
ARC
5
113
100
AcDbEntity
8
0
100
AcDbCircle
10
199.8000003129244
20
-144.49800028312208
30
0
40
0.99999999999999645
210
0
220
0
230
1
100
AcDbArc
50
-90
51
0
0
LINE
5
114
100
AcDbEntity
8
0
100
AcDbLine
10
200.80000031292442
20
-144.49800028312208
30
0
11
200.80000031292442
21
-88.698000283122056
31
0
0
ARC
5
115
100
AcDbEntity
8
0
100
AcDbCircle
10
199.8000003129244
20
-88.698000283122056
30
0
40
1.0000000000000142
210
0
220
-0
230
1
100
AcDbArc
50
0
51
90
0
LINE
5
116
100
AcDbEntity
8
0
100
AcDbLine
10
199.8000003129244
20
-87.698000283122056
30
0
11
194.40000031292442
21
-87.698000283122056
31
0
0
ARC
5
117
100
AcDbEntity
8
0
100
AcDbCircle
10
194.40000031292439
20
-86.69800028312207
30
0
40
0.99999999999997868
210
0
220
0
230
1
100
AcDbArc
50
180
51
270.00000000000159
0
LINE
5
118
100
AcDbEntity
8
0
100
AcDbLine
10
193.40000031292442
20
-86.69800028312207
30
0
11
193.40000031292442
21
-84.098000283122047
31
0
0
ARC
5
119
100
AcDbEntity
8
0
100
AcDbCircle
10
190.90000031292442
20
-84.098000283122047
30
0
40
2.5
210
0
220
0
230
1
100
AcDbArc
50
0
51
180
0
LINE
5
120
100
AcDbEntity
8
0
100
AcDbLine
10
188.40000031292442
20
-84.098000283122047
30
0
11
188.40000031292442
21
-86.69800028312207
31
0
0
ARC
5
121
100
AcDbEntity
8
0
100
AcDbCircle
10
187.40000031292442
20
-86.69800028312207
30
0
40
0.99999999999999645
210
0
220
0
230
1
100
AcDbArc
50
-90.000000000001634
51
0
0
LINE
5
122
100
AcDbEntity
8
0
100
AcDbLine
10
187.40000031292439
20
-87.698000283122056
30
0
11
173.30000031292442
21
-87.698000283122042
31
0
0
ARC
5
123
100
AcDbEntity
8
0
100
AcDbCircle
10
173.30000031292442
20
-86.698000283122028
30
0
40
1.0000000000000142
210
0
220
0
230
1
100
AcDbArc
50
180
51
270
0
LINE
5
124
100
AcDbEntity
8
0
100
AcDbLine
10
172.3000003129244
20
-86.698000283122042
30
0
11
172.3000003129244
21
-74.350000283121801
31
0
0
ARC
5
125
100
AcDbEntity
8
0
100
AcDbCircle
10
171.3000003129244
20
-74.350000283121801
30
0
40
1.0000000000000142
210
0
220
-0
230
1
100
AcDbArc
50
0
51
90
0
LINE
5
126
100
AcDbEntity
8
0
100
AcDbLine
10
171.3000003129244
20
-73.350000283121801
30
0
11
146.9000005572058
21
-73.350000283122071
31
0
0
ARC
5
127
100
AcDbEntity
8
0
100
AcDbCircle
10
146.90000055720577
20
-72.350000283122085
30
0
40
0.99999999999999645
210
0
220
0
230
1
100
AcDbArc
50
180
51
270.00000000000159
0
LINE
5
128
100
AcDbEntity
8
0
100
AcDbLine
10
145.90000055720577
20
-72.350000283122085
30
0
11
145.90000055720577
21
-71.350000038840747
31
0
0
LINE
5
129
100
AcDbEntity
8
0
100
AcDbLine
10
145.90000055720577
20
-71.350000038840747
30
0
11
145.90000075263077
21
-69.750000588473739
31
0
0
ARC
5
130
100
AcDbEntity
8
0
100
AcDbCircle
10
143.40000068545345
20
-69.750000283122077
30
0
40
2.5000000671773397
210
0
220
0
230
1
100
AcDbArc
50
-6.9884384569665294e-06
51
179.9999947369858
0
LINE
5
131
100
AcDbEntity
8
0
100
AcDbLine
10
140.90000061827612
20
-69.750000052276221
30
0
11
140.90000048256422
21
-71.350000452761904
31
0
0
LINE
5
132
100
AcDbEntity
8
0
100
AcDbLine
10
140.90000048256422
20
-71.350000452761904
30
0
11
140.90011702523265
21
-72.350382274534525
31
0
0
ARC
5
133
100
AcDbEntity
8
0
100
AcDbCircle
10
139.90011703201856
20
-72.350498772720584
30
0
40
1.0000000000000084
210
0
220
0
230
1
100
AcDbArc
50
-90.020430348339673
51
0.0066748543520924334
0
LINE
5
134
100
AcDbEntity
8
0
100
AcDbLine
10
139.89976045518026
20
-73.350498709147075
30
0
11
138.90000042464081
21
-73.350142217853659
31
0
0
LINE
5
135
100
AcDbEntity
8
0
100
AcDbLine
10
138.90000042464081
20
-73.350142217853659
30
0
11
134.90001677756854
21
-73.350134120456289
31
0
0
ARC
5
136
100
AcDbEntity
8
0
100
AcDbCircle
10
134.90001880192619
20
-72.350134120458335
30
0
40
1.0000000000000204
210
0
220
0
230
1
100
AcDbArc
50
179.99988401240702
51
269.99988401285009
0
LINE
5
137
100
AcDbEntity
8
0
100
AcDbLine
10
133.90001880192821
20
-72.350132096100722
30
0
11
133.90001930828035
21
-72.10000230747967
31
0
0
ARC
5
138
100
AcDbEntity
8
0
100
AcDbCircle
10
132.90001930828242
20
-72.100000283122057
30
0
40
0.99999999999998479
210
-0
220
0
230
1
100
AcDbArc
50
-0.00011598759298762981
51
90
0
LINE
5
139
100
AcDbEntity
8
0
100
AcDbLine
10
132.90001930828242
20
-71.100000283122057
30
0
11
112.59305630184122
21
-71.100000283122057
31
0
0
ARC
5
140
100
AcDbEntity
8
0
100
AcDbCircle
10
112.59305630184116
20
-70.100000283122228
30
0
40
0.99999999999981892
210
0
220
0
230
1
100
AcDbArc
50
239.9999999999971
51
270.00000000000324
0
LINE
5
141
100
AcDbEntity
8
0
100
AcDbLine
10
112.0930563018412
20
-70.966025686906491
30
0
11
98.786874219242748
21
-63.283697879632115
31
0
0
ARC
5
142
100
AcDbEntity
8
0
100
AcDbCircle
10
98.286874219242733
20
-64.149723283416549
30
0
40
0.99999999999999956
210
0
220
-0
230
1
100
AcDbArc
50
59.999999999999154
51
150.00000000000134
0
LINE
5
143
100
AcDbEntity
8
0
100
AcDbLine
10
97.420848815458285
20
-63.64972328341657
30
0
11
92.577348815458492
21
-72.038911369876516
31
0
0
ARC
5
144
100
AcDbEntity
8
0
100
AcDbCircle
10
91.711323411674044
20
-71.538911369876516
30
0
40
1.000000000000006
210
0
220
0
230
1
100
AcDbArc
50
240.00000000000063
51
330.00000000000023
0
LINE
5
145
100
AcDbEntity
8
0
100
AcDbLine
10
91.211323411674044
20
-72.404936773660978
30
0
11
88.959657361834488
21
-71.104936773660967
31
0
0
ARC
5
146
100
AcDbEntity
8
0
100
AcDbCircle
10
87.709657361834488
20
-73.270000283122073
30
0
40
2.5000000000000049
210
0
220
-0
230
1
100
AcDbArc
50
60.000000000000114
51
240.00000000000011
0
LINE
5
147
100
AcDbEntity
8
0
100
AcDbLine
10
86.459657361834488
20
-75.435063792583179
30
0
11
88.711323411674044
21
-76.735063792583176
31
0
0
ARC
5
148
100
AcDbEntity
8
0
100
AcDbCircle
10
88.211323411674016
20
-77.601089196367624
30
0
40
1.0000000000000104
210
-0
220
0
230
1
100
AcDbArc
50
-29.999999999999307
51
59.999999999998863
0
LINE
5
149
100
AcDbEntity
8
0
100
AcDbLine
10
89.077348815458478
20
-78.101089196367624
30
0
11
84.233848815458487
21
-86.490277282827464
31
0
0
ARC
5
150
100
AcDbEntity
8
0
100
AcDbCircle
10
85.099874219242921
20
-86.990277282827449
30
0
40
0.99999999999999067
210
0
220
0
230
1
100
AcDbArc
50
150.0000000000006
51
239.99999999999918
0
LINE
5
151
100
AcDbEntity
8
0
100
AcDbLine
10
84.599874219242906
20
-87.856302686611883
30
0
11
85.500000312924413
21
-88.375990729103506
31
0
0
ARC
5
152
100
AcDbEntity
8
0
100
AcDbCircle
10
85.000000312924357
20
-89.242016132887983
30
0
40
1.0000000000000497
210
0
220
-0
230
1
100
AcDbArc
50
0
51
59.999999999998266
0
LINE
5
153
100
AcDbEntity
8
0
100
AcDbLine
10
86.000000312924399
20
-89.24201613288794
30
0
11
86.000000312924399
21
-145.70000028312205
31
0
0
ARC
5
154
100
AcDbEntity
8
0
100
AcDbCircle
10
86.600000312924422
20
-144.90000028312207
30
0
40
1
210
0
220
0
230
1
100
AcDbArc
50
233.13010235415436
51
270
0
LINE
5
155
100
AcDbEntity
8
0
100
AcDbLine
10
86.600000312924422
20
-145.90000028312207
30
0
11
92.400000312924391
21
-145.90000028312207
31
0
0
ARC
5
156
100
AcDbEntity
8
0
100
AcDbCircle
10
92.400000312924391
20
-146.90000028312207
30
0
40
0.99999999999999645
210
0
220
0
230
1
100
AcDbArc
50
0
51
90
0
LINE
5
157
100
AcDbEntity
8
0
100
AcDbLine
10
93.400000312924391
20
-146.90000028312207
30
0
11
93.400000312924405
21
-149.30000028312207
31
0
0
ARC
5
158
100
AcDbEntity
8
0
100
AcDbCircle
10
95.900000312924419
20
-149.27234008775196
30
0
40
2.5001530125990294
210
0
220
0
230
1
100
AcDbArc
50
180.63389911692485
51
359.36610088307572
0
LINE
5
159
100
AcDbEntity
8
0
100
AcDbLine
10
98.400000312924448
20
-149.30000028312205
30
0
11
98.400000312924405
21
-146.90000028312207
31
0
0
ARC
5
160
100
AcDbEntity
8
0
100
AcDbCircle
10
99.400000312924405
20
-146.90000028312207
30
0
40
0.99999999999999645
210
0
220
-0
230
1
100
AcDbArc
50
90
51
180
0
LINE
5
161
100
AcDbEntity
8
0
100
AcDbLine
10
99.400000312924405
20
-145.90000028312207
30
0
11
104.00000031292439
21
-145.90000028312207
31
0
0
ARC
5
162
100
AcDbEntity
8
0
100
AcDbCircle
10
104.00000031292439
20
-146.90000028312207
30
0
40
0.99999999999999645
210
0
220
0
230
1
100
AcDbArc
50
0
51
90
0
ARC
5
163
100
AcDbEntity
8
0
100
AcDbCircle
10
106.0000003129244
20
-146.90000028312207
30
0
40
1.0000000000000142
210
0
220
0
230
1
100
AcDbArc
50
180
51
270
0
LINE
5
164
100
AcDbEntity
8
0
100
AcDbLine
10
106.0000003129244
20
-147.90000028312207
30
0
11
123.4000003129244
21
-147.90000028312207
31
0
0
ARC
5
165
100
AcDbEntity
8
0
100
AcDbCircle
10
123.4000003129244
20
-148.90000028312207
30
0
40
0.99999999999999645
210
0
220
0
230
1
100
AcDbArc
50
0
51
90
0
LINE
5
166
100
AcDbEntity
8
0
100
AcDbLine
10
124.4000003129244
20
-148.90000028312207
30
0
11
124.40000031292442
21
-149.29700028312209
31
0
0
ARC
5
167
100
AcDbEntity
8
0
100
AcDbCircle
10
125.40000031292442
20
-149.29700028312209
30
0
40
0.99999999999999645
210
0
220
0
230
1
100
AcDbArc
50
180
51
270
0
LINE
5
168
100
AcDbEntity
8
0
100
AcDbLine
10
125.40000031292442
20
-150.29700028312209
30
0
11
139.90000031292439
21
-150.29700028312206
31
0
0
ARC
5
169
100
AcDbEntity
8
0
100
AcDbCircle
10
139.90000031292442
20
-151.29700028312206
30
0
40
0.99999999999997868
210
0
220
0
230
1
100
AcDbArc
50
0
51
90.000000000001634
0
LINE
5
170
100
AcDbEntity
8
0
100
AcDbLine
10
140.90000031292439
20
-151.29700028312209
30
0
11
140.90000031292442
21
-153.89700028312208
31
0
0
ARC
5
171
100
AcDbEntity
8
0
100
AcDbCircle
10
143.40000031292442
20
-153.89700028312208
30
0
40
2.5
210
0
220
0
230
1
100
AcDbArc
50
-180
51
0
0
LINE
5
172
100
AcDbEntity
8
0
100
AcDbLine
10
145.90000031292442
20
-153.89700028312208
30
0
11
145.90000031292442
21
-152.60100028312206
31
0
0
ARC
5
173
100
AcDbEntity
8
0
100
AcDbCircle
10
146.90000031292439
20
-152.60100028312206
30
0
40
0.99999999999999645
210
0
220
-0
230
1
100
AcDbArc
50
90
51
180
0
LINE
5
174
100
AcDbEntity
8
0
100
AcDbLine
10
146.90000031292439
20
-151.60100028312206
30
0
11
161.52538298235777
21
-151.60100028312206
31
0
0
LWPOLYLINE
5
175
100
AcDbEntity
8
0
100
AcDbPolyline
90
2
70
1
43
0.0
10
142.60650894665895
20
-68.849794273108387
42
-1.0002273175433678
10
144.19308312354227
20
-70.650566908286251
42
-1.0002272899600542
0
LWPOLYLINE
5
176
100
AcDbEntity
8
0
100
AcDbPolyline
90
4
70
1
43
0.0
10
107.90000031292439
20
-112.00000028312206
10
107.90000031292439
20
-126.00000028312206
10
121.90000031292442
20
-126.00000028312206
10
121.90000031292442
20
-112.00000028312206
0
CIRCLE
5
177
100
AcDbEntity
8
0
100
AcDbCircle
10
87.709657361834488
20
-73.270000283122073
30
0
40
1.2000000000000099
210
0
220
-0
230
1
0
LWPOLYLINE
5
178
100
AcDbEntity
8
0
100
AcDbPolyline
90
4
70
1
43
0.0
10
108.96317813941549
20
-77.457822456630979
10
96.838822486433344
20
-70.457822456631007
10
89.83882248643333
20
-82.582178109613125
10
101.96317813941548
20
-89.582178109613125
0
LWPOLYLINE
5
179
100
AcDbEntity
8
0
100
AcDbPolyline
90
4
70
1
43
0.0
10
197.90000031292442
20
-109.59800028312205
10
183.90000031292442
20
-109.59800028312202
10
183.90000031292442
20
-123.59800028312208
10
197.90000031292442
20
-123.59800028312208
0
LWPOLYLINE
5
180
100
AcDbEntity
8
0
100
AcDbPolyline
90
4
70
1
43
0.0
10
107.90000031292439
20
-107.00000028312206
10
121.90000031292442
20
-107.00000028312206
10
121.90000031292442
20
-93.000000283122048
10
107.90000031292439
20
-93.000000283122048
0
ARC
5
181
100
AcDbEntity
8
0
100
AcDbCircle
10
95.900000312924419
20
-149.27234008775196
30
0
40
1.1999999999999944
210
-0
220
0
230
1
100
AcDbArc
50
-0.66035314257694455
51
180.66035314257863
0
ARC
5
182
100
AcDbEntity
8
0
100
AcDbCircle
10
95.900000312924405
20
-149.30000028312207
30
0
40
1.1999999999999258
210
0
220
0
230
1
100
AcDbArc
50
-180.6603531422204
51
0.66035314222151009
0
CIRCLE
5
183
100
AcDbEntity
8
0
100
AcDbCircle
10
190.90000031292442
20
-84.098000283122047
30
0
40
1.2000000000000099
210
0
220
-0
230
1
0
CIRCLE
5
184
100
AcDbEntity
8
0
100
AcDbCircle
10
190.90000031292442
20
-149.09800028312208
30
0
40
1.2000000000000099
210
0
220
-0
230
1
0
LWPOLYLINE
5
185
100
AcDbEntity
8
0
100
AcDbPolyline
90
4
70
1
43
0.0
10
88.900000312924391
20
-117.00000028312206
10
88.900000312924419
20
-131.00000028312206
10
102.90000031292439
20
-131.00000028312206
10
102.90000031292439
20
-117.00000028312206
0
LWPOLYLINE
5
186
100
AcDbEntity
8
0
100
AcDbPolyline
90
4
70
1
43
0.0
10
159.90000031292442
20
-134.70100028312206
10
145.90000031292439
20
-134.70100028312208
10
145.90000031292442
20
-148.70100028312206
10
159.90000031292442
20
-148.70100028312206
0
LWPOLYLINE
5
187
100
AcDbEntity
8
0
100
AcDbPolyline
90
4
70
1
43
0.0
10
102.90000031292439
20
-98.000000283122048
10
88.900000312924419
20
-98.000000283122063
10
88.900000312924419
20
-112.00000028312206
10
102.90000031292439
20
-112.00000028312206
0
LWPOLYLINE
5
188
100
AcDbEntity
8
0
100
AcDbPolyline
90
4
70
1
43
0.0
10
136.40000031292433
20
-76.25000028312185
10
136.40000031292442
20
-90.250000283122063
10
150.40000031292442
20
-90.250000283122063
10
150.40000031292442
20
-76.250000283122048
0
LWPOLYLINE
5
189
100
AcDbEntity
8
0
100
AcDbPolyline
90
4
70
1
43
0.0
10
183.90000031292442
20
-142.59800028312208
10
197.90000031292442
20
-142.59800028312208
10
197.90000031292442
20
-128.59800028312208
10
183.90000031292436
20
-128.59800028312219
0
LWPOLYLINE
5
190
100
AcDbEntity
8
0
100
AcDbPolyline
90
4
70
1
43
0.0
10
145.90000031292442
20
-129.70100028312206
10
159.90000031292442
20
-129.70100028312206
10
159.90000031292442
20
-115.70100028312206
10
145.90000031292442
20
-115.70100028312208
0
LWPOLYLINE
5
191
100
AcDbEntity
8
0
100
AcDbPolyline
90
4
70
1
43
0.0
10
107.90000031292439
20
-131.00000028312206
10
107.90000031292439
20
-145.00000028312206
10
121.90000031292442
20
-145.00000028312206
10
121.90000031292442
20
-131.00000028312206
0
LWPOLYLINE
5
192
100
AcDbEntity
8
0
100
AcDbPolyline
90
4
70
1
43
0.0
10
178.90000031292442
20
-133.39800028312206
10
164.90000031292448
20
-133.398000283122
10
164.90000031292442
20
-147.39800028312206
10
178.90000031292442
20
-147.39800028312206
0
LWPOLYLINE
5
193
100
AcDbEntity
8
0
100
AcDbPolyline
90
4
70
1
43
0.0
10
183.90000031292445
20
-90.598000283122218
10
183.90000031292442
20
-104.59800028312205
10
197.90000031292442
20
-104.59800028312205
10
197.90000031292442
20
-90.598000283122076
0
LWPOLYLINE
5
194
100
AcDbEntity
8
0
100
AcDbPolyline
90
4
70
1
43
0.0
10
155.40000031292442
20
-90.250000283122063
10
169.40000031292442
20
-90.250000283122063
10
169.40000031292442
20
-76.250000283122048
10
155.40000031292482
20
-76.250000283123399
0
LWPOLYLINE
5
195
100
AcDbEntity
8
0
100
AcDbPolyline
90
4
70
1
43
0.0
10
140.90000031292442
20
-133.39700028312205
10
126.90000031292442
20
-133.39700028312205
10
126.90000031292442
20
-147.39700028312205
10
140.90000031292442
20
-147.39700028312205
0
LWPOLYLINE
5
196
100
AcDbEntity
8
0
100
AcDbPolyline
90
4
70
1
43
0.0
10
140.90000031292442
20
-128.39700028312205
10
140.90000031292442
20
-114.39700028312205
10
126.90000031292442
20
-114.39700028312205
10
126.90000031292442
20
-128.39700028312205
0
LWPOLYLINE
5
197
100
AcDbEntity
8
0
100
AcDbPolyline
90
4
70
1
43
0.0
10
145.90000031292442
20
-110.70100028312206
10
159.90000031292442
20
-110.70100028312206
10
159.90000031292442
20
-96.701000283122056
10
145.90000031292442
20
-96.701000283122113
0
CIRCLE
5
198
100
AcDbEntity
8
0
100
AcDbCircle
10
143.40000031292442
20
-153.89700028312208
30
0
40
1.1999999999999922
210
0
220
-0
230
1
0
LWPOLYLINE
5
199
100
AcDbEntity
8
0
100
AcDbPolyline
90
4
70
1
43
0.0
10
126.90000031292442
20
-109.39700028312205
10
140.90000031292442
20
-109.39700028312205
10
140.90000031292442
20
-95.397000283122054
10
126.90000031292442
20
-95.397000283122082
0
LWPOLYLINE
5
200
100
AcDbEntity
8
0
100
AcDbPolyline
90
4
70
1
43
0.0
10
164.90000031292442
20
-95.398000283122002
10
164.90000031292442
20
-109.39800028312206
10
178.90000031292442
20
-109.39800028312206
10
178.90000031292442
20
-95.398000283122059
0
LWPOLYLINE
5
201
100
AcDbEntity
8
0
100
AcDbPolyline
90
4
70
1
43
0.0
10
178.90000031292442
20
-128.39800028312206
10
178.90000031292442
20
-114.39800028312206
10
164.90000031292442
20
-114.39800028312206
10
164.90000031292442
20
-128.39800028312206
0
LWPOLYLINE
5
202
100
AcDbEntity
8
0
100
AcDbPolyline
90
4
70
1
43
0.0
10
131.40000031292442
20
-88.000000283122048
10
131.40000031292442
20
-74.000000283122048
10
117.40000031292442
20
-74.000000283122077
10
117.4000003129244
20
-88.000000283122048
0
LWPOLYLINE
5
203
100
AcDbEntity
8
0
100
AcDbPolyline
90
4
70
1
43
0.0
10
102.90000031292442
20
-136.0000005364418
10
88.900000312924391
20
-136.0000005364418
10
88.900000312924391
20
-144.0000005364418
10
102.90000031292442
20
-144.0000005364418
0
CIRCLE
5
204
100
AcDbEntity
8
0
100
AcDbCircle
10
143.40000068545345
20
-69.750000283122077
30
0
40
1.2000000000000093
210
0
220
0
230
1
0
ENDSEC
0
SECTION
2
OBJECTS
0
DICTIONARY
5
C
100
AcDbDictionary
3
ACAD_GROUP
350
D
3
ACAD_MLINESTYLE
350
17
0
DICTIONARY
5
D
100
AcDbDictionary
0
DICTIONARY
5
1A
330
C
100
AcDbDictionary
0
DICTIONARY
5
17
100
AcDbDictionary
0
ENDSEC
0
EOF
